<?xml version="1.0" encoding="UTF-8"?>
<svg id="Capa_2" data-name="Capa 2" xmlns="http://www.w3.org/2000/svg" width="46.98" height="46.98" viewBox="0 0 46.98 46.98">
  <defs>
    <style>
      .cls-1 {
        fill: #ffc400;
        stroke: #000;
        stroke-miterlimit: 10;
        stroke-width: 3px;
      }

      .cls-2 {
        fill: #000;
        fill-rule: evenodd;
        stroke-width: 0px;
      }
    </style>
  </defs>
  <g id="Capa_2-2" data-name="Capa 2">
    <g>
      <circle class="cls-1" cx="23.49" cy="23.49" r="21.99"/>
      <path class="cls-2" d="M12.97,22.52c0-4.5,4.89-9.58,10.44-9.58,9.67,0,13.9,11.92,7.48,17.99-6.35,5.99-12.06,1.57-13.48,1.57-1.24,0-2,.76-3.36.55-.2-1.7,1.07-2.49.22-4.39-1.37-3.08-1.29-2.88-1.29-6.13h0ZM10.87,36.24c2.03-.12,3.78-.94,5.63-1.26,1.56-.27,3.19.93,5.07,1.14,4.33.48,8.08-.9,10.32-3.04,4.71-4.47,5.86-11.13,2.11-16.75-7.14-10.71-24.85-5.11-23.12,9,.21,1.74,1.46,4.2,1.31,5.15-.32,2-1.29,3.61-1.32,5.77h0ZM26.41,29.63c3,0,3.82-2.06,3.33-3.02-.25-.49-2.18-1.45-3.1-1.5l-1.57,1.53c-2.48-.54-3.31-2.22-4.68-3.75.3-1.44,1.24-1.21.7-2.87-1.55-4.71-4.44-1.56-4.13,1.09.35,3.04,5.8,8.53,9.46,8.53h0Z"/>
    </g>
  </g>
</svg>