<?xml version="1.0" encoding="UTF-8"?>
<svg id="Capa_2" data-name="Capa 2" xmlns="http://www.w3.org/2000/svg" width="14.86" height="14.23" viewBox="0 0 14.86 14.23">
  <defs>
    <style>
      .cls-1 {
        fill: #ffc400;
      }

      .cls-1, .cls-2 {
        stroke-width: 0px;
      }

      .cls-2 {
        fill: #fff;
      }
    </style>
  </defs>
  <g id="Capa_2-2" data-name="Capa 2">
    <g>
      <path class="cls-2" d="M11.36,0H3.49C1.56,0,0,1.56,0,3.49v7.24c0,1.93,1.56,3.49,3.49,3.49h7.87c1.93,0,3.49-1.56,3.49-3.49V3.49c0-1.93-1.56-3.49-3.49-3.49ZM.85,3.46C.85,2.03,2.01.87,3.44.87h7.98c1.43,0,2.59,1.16,2.59,2.59v7.3c0,1.43-1.16,2.59-2.59,2.59H3.44c-1.43,0-2.59-1.16-2.59-2.59V3.46Z"/>
      <path class="cls-1" d="M7.43,10.57c1.91,0,3.46-1.55,3.46-3.46s-1.55-3.46-3.46-3.46-3.46,1.55-3.46,3.46,1.55,3.46,3.46,3.46ZM7.43,4.97c1.18,0,2.15.96,2.15,2.15s-.96,2.15-2.15,2.15-2.15-.96-2.15-2.15.96-2.15,2.15-2.15Z"/>
      <path class="cls-1" d="M11.21,4.21c.51,0,.93-.42.93-.93s-.42-.93-.93-.93-.93.42-.93.93.42.93.93.93Z"/>
    </g>
  </g>
</svg>