<?xml version="1.0" encoding="UTF-8"?>
<svg id="Capa_2" xmlns="http://www.w3.org/2000/svg" version="1.1" viewBox="0 0 102.4 51.2">
  <!-- Generator: Adobe Illustrator 30.4.0, SVG Export Plug-In . SVG Version: 2.1.4 Build 226)  -->
  <defs>
    <style>
      .st0, .st1, .st2 {
        fill: #fff;
      }

      .st1 {
        opacity: .7;
      }

      .st1, .st2 {
        isolation: isolate;
      }

      .st3 {
        fill: #ffc400;
      }

      .st2 {
        opacity: .6;
      }
    </style>
  </defs>
  <g id="Capa_1-2">
    <g>
      <path class="st2" d="M18.1,0c2.6,0,4.8.4,6.6,1.3,1.8.9,3.2,2,4.3,3.5,1.1,1.4,1.9,3.1,2.4,4.9.5,1.8.7,3.7.7,5.6s-.4,4.9-1.2,6.9-1.9,3.6-3.3,4.8c-1.4,1.2-3.1,2.2-5.1,2.8-2,.6-4.2.9-6.7.9h-5.5v20.4H0V0h18.1ZM14.9,23.2c2.1,0,3.7-.6,5-1.9,1.3-1.2,1.9-3.2,1.9-5.8s-.5-4.5-1.6-5.9-2.9-2-5.5-2h-4.3v15.6h4.6Z"/>
      <path class="st3" d="M53,0v21.7h13.3V0h11.4v51.2h-11.4v-19.7h-13.3v19.7l-11.4-13.1V0h11.4Z"/>
      <path class="st1" d="M87.3,3.4c2,0,3.8.2,5.5.6,1.7.4,3.1,1.1,4.3,2s2.1,2.2,2.8,3.8,1,3.5,1,5.8-.6,4.8-1.8,6.7-3,3.1-5.4,3.8h0c2.7.5,4.8,1.6,6.4,3.5s2.3,4.5,2.3,7.7-.2,3.7-.7,5.4-1.3,3.2-2.5,4.5-2.7,2.3-4.6,3-4.2,1.1-7.1,1.1h-16.3V3.4h16.2ZM83.6,23c2.7,0,4.6-.5,5.9-1.4,1.2-1,1.8-2.6,1.8-4.9s-.6-3.9-1.7-4.8c-1.1-.9-2.9-1.4-5.3-1.4h-3.5v12.5h2.8,0ZM84.6,44.1c2.3,0,4.2-.5,5.6-1.5,1.4-1,2.1-2.9,2.1-5.7s-.2-2.5-.6-3.5c-.4-.9-.9-1.6-1.5-2.2s-1.4-1-2.3-1.2-1.9-.3-2.9-.3h-4.2v14.4h3.8Z"/>
      <path class="st0" d="M41.5,8.2l11.4,43h-9l-2-9.1h-11.5l-2,9.1h-9L30.8,8.2h10.7ZM40.4,35l-4.2-19.3h-.1l-4.2,19.3h8.4Z"/>
    </g>
  </g>
</svg>