<?xml version="1.0" encoding="UTF-8"?>
<svg id="Capa_2" data-name="Capa 2" xmlns="http://www.w3.org/2000/svg" width="102.37" height="67.67" viewBox="0 0 102.37 67.67">
  <defs>
    <style>
      .cls-1 {
        fill: #ffc400;
      }

      .cls-2, .cls-3, .cls-4 {
        fill: #fff;
      }

      .cls-3 {
        opacity: .59;
      }

      .cls-4 {
        opacity: .71;
      }
    </style>
  </defs>
  <g id="Capa_1-2" data-name="Capa 1">
    <g>
      <g>
        <path class="cls-3" d="M18.07,0c2.63,0,4.84.44,6.64,1.33,1.79.89,3.24,2.04,4.34,3.48,1.1,1.43,1.89,3.07,2.37,4.91.48,1.84.72,3.72.72,5.63,0,2.63-.39,4.93-1.18,6.89-.79,1.96-1.89,3.56-3.3,4.81-1.41,1.24-3.12,2.18-5.13,2.8-2.01.62-4.23.93-6.67.93h-5.52v20.44H0V0h18.07ZM14.92,23.17c2.06,0,3.72-.62,4.98-1.86,1.27-1.24,1.9-3.18,1.9-5.81s-.55-4.54-1.65-5.88c-1.1-1.34-2.94-2.01-5.52-2.01h-4.3v15.57h4.59Z"/>
        <path class="cls-1" d="M52.97,0v21.69h13.35V0h11.44v51.21h-11.44v-19.66h-13.35v19.66l-11.44-13.06V0h11.44Z"/>
        <path class="cls-4" d="M87.3,3.4c1.96,0,3.78.2,5.46.6,1.67.4,3.11,1.07,4.32,2.01,1.21.94,2.14,2.19,2.81,3.75.67,1.56,1,3.48,1,5.76,0,2.59-.6,4.81-1.81,6.66-1.21,1.85-3.01,3.11-5.42,3.78v.13c2.68.36,4.8,1.5,6.36,3.42,1.56,1.92,2.34,4.49,2.34,7.7,0,1.87-.25,3.66-.74,5.36-.49,1.7-1.33,3.18-2.51,4.45-1.18,1.27-2.72,2.29-4.62,3.05-1.9.76-4.25,1.14-7.07,1.14h-16.27V3.4h16.14ZM83.55,23.02c2.68,0,4.63-.48,5.86-1.44,1.23-.96,1.84-2.58,1.84-4.86s-.56-3.88-1.67-4.82c-1.12-.94-2.88-1.41-5.29-1.41h-3.48v12.52h2.75ZM84.56,44.11c2.32,0,4.2-.51,5.63-1.54,1.43-1.03,2.14-2.92,2.14-5.69,0-1.38-.19-2.53-.57-3.45-.38-.91-.89-1.65-1.54-2.21-.65-.56-1.42-.95-2.31-1.17-.89-.22-1.87-.34-2.95-.34h-4.15v14.4h3.75Z"/>
        <path class="cls-2" d="M41.53,8.2l11.39,43.01h-9.04l-1.99-9.1h-11.45l-1.99,9.1h-9.04L30.8,8.2h10.72ZM40.38,35.01l-4.16-19.34h-.12l-4.16,19.34h8.43Z"/>
      </g>
      <g>
        <path class="cls-1" d="M18.92,67.6v-6.75h.75v6.07h1.93v.68h-2.68Z"/>
        <path class="cls-1" d="M27.32,63.84v.67h-1.65v2.4h2.03v.68h-2.78v-6.75h2.78v.68h-2.03v2.31h1.65Z"/>
        <path class="cls-1" d="M34.12,62.48v.58h-.71v-.62c0-.61-.24-.97-.79-.97s-.79.37-.79.97v3.57c0,.61.25.97.79.97s.79-.37.79-.97v-1.35h-.69v-.67h1.41v1.99c0,1.02-.48,1.7-1.52,1.7s-1.51-.67-1.51-1.7v-3.49c0-1.02.48-1.7,1.51-1.7s1.52.67,1.52,1.7Z"/>
        <path class="cls-1" d="M38.34,66.24l-.26,1.36h-.69l1.29-6.75h1.09l1.29,6.75h-.75l-.26-1.36h-1.71ZM38.43,65.59h1.5l-.76-3.9-.74,3.9Z"/>
        <path class="cls-1" d="M44.39,67.6v-6.75h.75v6.07h1.93v.68h-2.68Z"/>
        <path class="cls-1" d="M57.61,62.48v.58h-.71v-.62c0-.61-.24-.97-.79-.97s-.79.37-.79.97v3.57c0,.61.25.97.79.97s.79-.37.79-.97v-1.35h-.69v-.67h1.41v1.99c0,1.02-.48,1.7-1.52,1.7s-1.51-.67-1.51-1.7v-3.49c0-1.02.48-1.7,1.51-1.7s1.52.67,1.52,1.7Z"/>
        <path class="cls-1" d="M62.58,60.85c1.06,0,1.5.54,1.5,1.54v.55c0,.74-.26,1.21-.84,1.39.62.18.85.68.85,1.41v1.05c0,.3,0,.58.13.81h-.76c-.09-.19-.13-.37-.13-.82v-1.06c0-.76-.36-1-.98-1h-.53v2.88h-.75v-6.75h1.5ZM62.39,64.03c.6,0,.95-.19.95-.93v-.65c0-.61-.22-.93-.78-.93h-.73v2.5h.56Z"/>
        <path class="cls-1" d="M67.57,62.48c0-1.03.51-1.7,1.54-1.7s1.55.67,1.55,1.7v3.49c0,1.02-.51,1.7-1.55,1.7s-1.54-.67-1.54-1.7v-3.49ZM68.31,66.01c0,.62.26.97.8.97s.8-.36.8-.97v-3.57c0-.61-.25-.97-.8-.97s-.8.37-.8.97v3.57Z"/>
        <path class="cls-1" d="M74.84,66.01c0,.61.24.97.79.97s.78-.37.78-.97v-5.16h.7v5.12c0,1.02-.47,1.71-1.51,1.71s-1.5-.68-1.5-1.71v-5.12h.74v5.16Z"/>
        <path class="cls-1" d="M82.08,60.85c1.06,0,1.51.63,1.51,1.65v.81c0,1.07-.5,1.63-1.57,1.63h-.67v2.66h-.75v-6.75h1.48ZM82.02,64.26c.56,0,.83-.26.83-.91v-.9c0-.62-.22-.93-.77-.93h-.72v2.73h.67Z"/>
      </g>
    </g>
  </g>
</svg>