<?xml version="1.0" encoding="UTF-8"?>
<svg id="Capa_2" data-name="Capa 2" xmlns="http://www.w3.org/2000/svg" width="16.31" height="15.56" viewBox="0 0 16.31 15.56">
  <defs>
    <style>
      .cls-1 {
        fill: #ffc400;
      }

      .cls-1, .cls-2 {
        stroke-width: 0px;
      }

      .cls-2 {
        fill: #fff;
      }
    </style>
  </defs>
  <g id="Capa_2-2" data-name="Capa 2">
    <g>
      <g>
        <path class="cls-1" d="M10.95,2.61h-5.6c-.16,0-.28.13-.28.29s.13.29.28.29h5.6c.16,0,.29-.13.29-.29s-.13-.29-.29-.29Z"/>
        <path class="cls-1" d="M10.95,5.23h-5.6c-.16,0-.28.13-.28.29s.13.29.28.29h5.6c.16,0,.29-.13.29-.29s-.13-.29-.29-.29Z"/>
      </g>
      <path class="cls-2" d="M15.96,8.49c.19,0,.35-.16.35-.35v-2.94c0-.23-.19-.41-.41-.41h-2.51V.93c0-.51-.42-.93-.93-.93H3.86c-.51,0-.93.42-.93.93v3.86H.4c-.22,0-.4.18-.4.4v9.92c0,.25.2.45.45.45h15.45c.23,0,.41-.19.41-.41v-4.14c0-.19-.16-.35-.35-.35s-.35.16-.35.35v3.55l-6.88-4.33,6.88-4.29v2.2c0,.19.16.35.35.35ZM2.92,5.49v1.09l-1.76-1.09h1.76ZM.69,5.87l6.95,4.36L.69,14.56V5.87ZM14.99,14.87H1.36l6.84-4.26,6.79,4.26ZM8.2,9.89l-4.58-2.88V.93c0-.14.1-.24.24-.24h8.6c.14,0,.24.1.24.24v3.93h0s0,.01,0,.02v2.04s.01.07.02.16l-4.51,2.82ZM13.38,6.65v-1.16h1.88l-1.88,1.16Z"/>
    </g>
  </g>
</svg>