<?xml version="1.0" encoding="UTF-8"?>
<svg id="Capa_2" data-name="Capa 2" xmlns="http://www.w3.org/2000/svg" width="412.06" height="263.23" viewBox="0 0 412.06 263.23">
  <defs>
    <style>
      .cls-1 {
        opacity: .71;
      }

      .cls-1, .cls-2, .cls-3 {
        fill: #000;
      }

      .cls-1, .cls-2, .cls-3, .cls-4, .cls-5 {
        stroke-width: 0px;
      }

      .cls-3 {
        opacity: .59;
      }

      .cls-4 {
        fill: #e6e6e6;
      }

      .cls-5 {
        fill: #ffc400;
      }
    </style>
  </defs>
  <g id="Capa_2-2" data-name="Capa 2">
    <g>
      <g>
        <path class="cls-4" d="M67.48,91.29c8.1,0,14.65-2.45,19.64-7.35,4.99-4.9,7.49-12.53,7.49-22.89s-2.17-17.9-6.5-23.18c-4.34-5.27-11.59-7.91-21.76-7.91h-16.96v61.33h18.09Z"/>
        <path class="cls-4" d="M337.91,90.7c10.56,0,18.25-1.89,23.09-5.67,4.83-3.78,7.26-10.16,7.26-19.13s-2.2-15.3-6.6-19c-4.4-3.7-11.35-5.54-20.85-5.54h-13.72v49.35h10.82Z"/>
        <polygon class="cls-4" points="167.8 137.94 151.43 61.75 150.95 61.75 134.57 137.94 167.8 137.94"/>
        <path class="cls-3" d="M79.91,0c10.36,0,19.08,1.74,26.14,5.23,7.06,3.49,12.76,8.05,17.1,13.71,4.33,5.65,7.44,12.11,9.33,19.36,1.88,7.25,2.82,14.65,2.82,22.19,0,10.37-1.55,19.41-4.66,27.13-3.11,7.73-7.44,14.04-13,18.93-5.56,4.9-12.29,8.58-20.21,11.02-7.91,2.45-16.67,3.67-26.28,3.67h-21.76v80.55H8.69V0h71.22ZM67.48,91.29c8.1,0,14.65-2.45,19.64-7.35,4.99-4.9,7.49-12.53,7.49-22.89s-2.17-17.9-6.5-23.18c-4.34-5.27-11.59-7.91-21.76-7.91h-16.96v61.33h18.09Z"/>
        <path class="cls-5" d="M217.4,0v85.48h52.6V0h45.09v201.79h-45.09v-77.48h-52.6v77.48l-45.09-51.45V0h45.09Z"/>
        <path class="cls-1" d="M352.68,13.38c7.74,0,14.91.79,21.51,2.37,6.6,1.58,12.27,4.22,17.02,7.92,4.75,3.69,8.44,8.62,11.08,14.78,2.64,6.16,3.96,13.72,3.96,22.69,0,10.21-2.38,18.96-7.13,26.26-4.75,7.3-11.87,12.27-21.37,14.91v.53c10.55,1.41,18.91,5.9,25.07,13.46,6.16,7.57,9.24,17.68,9.24,30.35,0,7.39-.97,14.43-2.9,21.11-1.94,6.69-5.24,12.53-9.9,17.55-4.66,5.01-10.73,9.02-18.21,12.01-7.48,2.99-16.76,4.49-27.84,4.49h-64.12V13.38h63.6ZM337.91,90.7c10.56,0,18.25-1.89,23.09-5.67,4.83-3.78,7.26-10.16,7.26-19.13s-2.2-15.3-6.6-19c-4.4-3.7-11.35-5.54-20.85-5.54h-13.72v49.35h10.82ZM341.86,173.82c9.15,0,16.54-2.02,22.17-6.07,5.63-4.05,8.44-11.52,8.44-22.43,0-5.45-.75-9.98-2.24-13.59-1.5-3.6-3.52-6.51-6.07-8.71-2.55-2.2-5.59-3.74-9.1-4.62-3.52-.88-7.39-1.32-11.61-1.32h-16.36v56.74h14.78Z"/>
        <path class="cls-2" d="M172.31,32.31l44.86,169.48h-35.61l-7.83-35.84h-45.1l-7.83,35.84h-35.61l44.86-169.48h42.25ZM167.8,137.94l-16.38-76.2h-.48l-16.38,76.2h33.23Z"/>
      </g>
      <g>
        <path class="cls-2" d="M17.91,255.07l-1.76-5.78H7.3l-1.76,5.78H0l8.57-24.37h6.29l8.6,24.37h-5.54ZM14.92,244.97c-1.63-5.23-2.54-8.2-2.75-8.88-.2-.69-.35-1.23-.44-1.63-.37,1.42-1.41,4.92-3.14,10.51h6.33Z"/>
        <path class="cls-2" d="M38.55,249.55c0,1.9-.66,3.35-1.98,4.35-1.32,1-3.3,1.49-5.93,1.49-1.35,0-2.5-.09-3.45-.27s-1.84-.45-2.67-.81v-4.18c.94.44,2,.81,3.18,1.11s2.22.45,3.11.45c1.84,0,2.76-.53,2.76-1.59,0-.4-.12-.72-.37-.97s-.66-.53-1.26-.85-1.39-.68-2.39-1.1c-1.43-.6-2.48-1.15-3.15-1.66-.67-.51-1.16-1.09-1.46-1.75-.3-.66-.46-1.47-.46-2.43,0-1.65.64-2.92,1.92-3.83,1.28-.9,3.09-1.35,5.44-1.35s4.41.49,6.52,1.46l-1.53,3.65c-.93-.4-1.8-.72-2.61-.98-.81-.25-1.63-.38-2.47-.38-1.49,0-2.24.4-2.24,1.21,0,.45.24.85.72,1.18s1.54.82,3.16,1.48c1.45.59,2.51,1.13,3.19,1.64.67.51,1.17,1.1,1.49,1.76s.48,1.46.48,2.37Z"/>
        <path class="cls-2" d="M50.39,255.4c-2.99,0-5.32-.82-7.01-2.47-1.68-1.65-2.52-3.98-2.52-7.01s.78-5.51,2.33-7.21c1.56-1.7,3.71-2.55,6.45-2.55s4.67.75,6.13,2.24,2.19,3.56,2.19,6.19v2.46h-11.97c.06,1.44.48,2.56,1.28,3.37.8.81,1.92,1.21,3.35,1.21,1.12,0,2.17-.12,3.17-.35s2.04-.6,3.12-1.11v3.92c-.89.44-1.83.77-2.84.99s-2.24.32-3.69.32ZM49.68,239.76c-1.07,0-1.92.34-2.52,1.02s-.96,1.65-1.05,2.9h7.11c-.02-1.25-.35-2.22-.98-2.9s-1.48-1.02-2.56-1.02Z"/>
        <path class="cls-2" d="M74.52,249.55c0,1.9-.66,3.35-1.98,4.35-1.32,1-3.3,1.49-5.93,1.49-1.35,0-2.5-.09-3.45-.27s-1.84-.45-2.67-.81v-4.18c.94.44,2,.81,3.18,1.11s2.22.45,3.11.45c1.84,0,2.76-.53,2.76-1.59,0-.4-.12-.72-.37-.97s-.66-.53-1.26-.85-1.39-.68-2.39-1.1c-1.43-.6-2.48-1.15-3.15-1.66-.67-.51-1.16-1.09-1.46-1.75-.3-.66-.46-1.47-.46-2.43,0-1.65.64-2.92,1.92-3.83,1.28-.9,3.09-1.35,5.44-1.35s4.41.49,6.52,1.46l-1.53,3.65c-.93-.4-1.8-.72-2.61-.98-.81-.25-1.63-.38-2.47-.38-1.49,0-2.24.4-2.24,1.21,0,.45.24.85.72,1.18s1.54.82,3.16,1.48c1.45.59,2.51,1.13,3.19,1.64.67.51,1.17,1.1,1.49,1.76s.48,1.46.48,2.37Z"/>
        <path class="cls-2" d="M94.83,245.75c0,3.02-.8,5.38-2.39,7.09-1.59,1.7-3.81,2.56-6.66,2.56-1.78,0-3.35-.39-4.71-1.17s-2.41-1.9-3.14-3.36-1.1-3.17-1.1-5.11c0-3.03.79-5.39,2.37-7.07,1.58-1.68,3.81-2.52,6.67-2.52,1.78,0,3.35.39,4.71,1.16,1.36.77,2.41,1.89,3.14,3.34.73,1.45,1.1,3.15,1.1,5.1ZM82,245.75c0,1.84.3,3.23.9,4.17.6.94,1.59,1.41,2.95,1.41s2.32-.47,2.91-1.4c.59-.94.89-2.33.89-4.18s-.3-3.21-.9-4.13c-.6-.92-1.58-1.38-2.94-1.38s-2.32.46-2.92,1.37-.9,2.29-.9,4.14Z"/>
        <path class="cls-2" d="M108.86,236.16c.69,0,1.26.05,1.71.15l-.38,4.75c-.41-.11-.91-.17-1.49-.17-1.62,0-2.88.42-3.78,1.25-.9.83-1.35,1.99-1.35,3.49v9.45h-5.06v-18.56h3.83l.75,3.12h.25c.58-1.04,1.35-1.88,2.33-2.52.98-.64,2.04-.95,3.2-.95Z"/>
        <path class="cls-2" d="M113.18,234.46v-.45c1.9-2.21,3.2-3.88,3.9-5h5.68v.35c-.58.58-1.56,1.43-2.95,2.56-1.39,1.13-2.48,1.98-3.26,2.53h-3.37ZM118.5,255.07h-5.06v-18.56h5.06v18.56Z"/>
        <path class="cls-2" d="M135.09,255.07l-.98-2.52h-.13c-.85,1.07-1.73,1.82-2.63,2.23-.9.42-2.08.62-3.53.62-1.78,0-3.18-.51-4.21-1.53-1.02-1.02-1.54-2.47-1.54-4.35s.69-3.42,2.07-4.36c1.38-.94,3.46-1.45,6.23-1.55l3.22-.1v-.81c0-1.88-.96-2.82-2.89-2.82-1.48,0-3.23.45-5.23,1.34l-1.68-3.42c2.14-1.12,4.5-1.68,7.11-1.68s4.4.54,5.73,1.63c1.33,1.08,1.99,2.73,1.99,4.95v12.37h-3.54ZM133.59,246.47l-1.96.07c-1.47.04-2.57.31-3.29.8-.72.49-1.08,1.23-1.08,2.22,0,1.43.82,2.14,2.46,2.14,1.17,0,2.11-.34,2.81-1.01.7-.67,1.05-1.57,1.05-2.69v-1.53Z"/>
        <path class="cls-2" d="M149.5,262.2c-1.16,0-2.17-.12-3.04-.37v-4.28c.89.22,1.69.33,2.42.33,1.13,0,1.94-.35,2.42-1.05.49-.7.73-1.8.73-3.3v-22.74h5.15v22.71c0,2.83-.65,4.99-1.94,6.47-1.29,1.48-3.21,2.22-5.74,2.22Z"/>
        <path class="cls-2" d="M175.54,255.07l-.68-2.37h-.27c-.54.86-1.31,1.53-2.31,2s-2.13.71-3.4.71c-2.18,0-3.82-.58-4.93-1.75-1.11-1.17-1.66-2.85-1.66-5.04v-12.1h5.06v10.84c0,1.34.24,2.34.71,3.01.48.67,1.23,1,2.27,1,1.42,0,2.44-.47,3.07-1.42s.95-2.52.95-4.71v-8.73h5.06v18.56h-3.88Z"/>
        <path class="cls-2" d="M194.59,236.16c.69,0,1.26.05,1.71.15l-.38,4.75c-.41-.11-.91-.17-1.49-.17-1.62,0-2.88.42-3.78,1.25-.9.83-1.35,1.99-1.35,3.49v9.45h-5.06v-18.56h3.83l.75,3.12h.25c.58-1.04,1.35-1.88,2.33-2.52.98-.64,2.04-.95,3.2-.95Z"/>
        <path class="cls-2" d="M198.91,234.46v-.45c1.9-2.21,3.2-3.88,3.9-5h5.68v.35c-.58.58-1.56,1.43-2.95,2.56-1.39,1.13-2.48,1.98-3.26,2.53h-3.37ZM204.22,255.07h-5.06v-18.56h5.06v18.56Z"/>
        <path class="cls-2" d="M214.9,255.4c-2.18,0-3.89-.85-5.14-2.54s-1.87-4.04-1.87-7.04.63-5.41,1.9-7.11c1.27-1.7,3.01-2.55,5.24-2.55,2.33,0,4.12.91,5.35,2.72h.17c-.25-1.38-.38-2.62-.38-3.7v-5.94h5.08v25.83h-3.88l-.98-2.41h-.22c-1.15,1.83-2.91,2.74-5.26,2.74ZM216.68,251.36c1.29,0,2.24-.38,2.85-1.13.6-.75.93-2.03.99-3.83v-.55c0-1.99-.31-3.42-.92-4.28s-1.61-1.29-3-1.29c-1.13,0-2.01.48-2.63,1.44-.62.96-.94,2.35-.94,4.18s.32,3.2.95,4.11,1.53,1.37,2.71,1.37Z"/>
        <path class="cls-2" d="M229.81,231.71c0-1.65.92-2.47,2.76-2.47s2.76.82,2.76,2.47c0,.79-.23,1.4-.69,1.83-.46.44-1.15.66-2.07.66-1.84,0-2.76-.83-2.76-2.49ZM235.09,255.07h-5.06v-18.56h5.06v18.56Z"/>
        <path class="cls-2" d="M247.43,255.4c-5.78,0-8.67-3.17-8.67-9.51,0-3.15.79-5.56,2.36-7.23,1.57-1.67,3.82-2.5,6.76-2.5,2.15,0,4.07.42,5.78,1.26l-1.49,3.92c-.8-.32-1.54-.58-2.22-.79-.69-.2-1.37-.31-2.06-.31-2.63,0-3.95,1.87-3.95,5.61s1.32,5.45,3.95,5.45c.97,0,1.88-.13,2.71-.39.83-.26,1.66-.67,2.49-1.22v4.33c-.82.52-1.65.88-2.48,1.08-.83.2-1.89.3-3.16.3Z"/>
        <path class="cls-2" d="M268.65,255.07l-.98-2.52h-.13c-.85,1.07-1.73,1.82-2.63,2.23-.9.42-2.08.62-3.53.62-1.78,0-3.18-.51-4.21-1.53-1.02-1.02-1.54-2.47-1.54-4.35s.69-3.42,2.07-4.36c1.38-.94,3.46-1.45,6.23-1.55l3.22-.1v-.81c0-1.88-.96-2.82-2.89-2.82-1.48,0-3.23.45-5.23,1.34l-1.68-3.42c2.14-1.12,4.5-1.68,7.11-1.68s4.4.54,5.73,1.63c1.33,1.08,1.99,2.73,1.99,4.95v12.37h-3.54ZM267.16,246.47l-1.96.07c-1.47.04-2.57.31-3.29.8-.72.49-1.08,1.23-1.08,2.22,0,1.43.82,2.14,2.46,2.14,1.17,0,2.11-.34,2.81-1.01.7-.67,1.05-1.57,1.05-2.69v-1.53Z"/>
        <path class="cls-2" d="M285.61,255.07v-24.27h5.15v24.27h-5.15Z"/>
        <path class="cls-2" d="M313.09,255.07h-5.06v-10.84c0-1.34-.24-2.34-.71-3.01-.48-.67-1.23-1-2.27-1-1.42,0-2.44.47-3.07,1.42s-.95,2.52-.95,4.71v8.73h-5.06v-18.56h3.87l.68,2.37h.28c.56-.9,1.34-1.57,2.33-2.03.99-.46,2.12-.69,3.38-.69,2.16,0,3.8.58,4.91,1.75,1.12,1.17,1.68,2.85,1.68,5.06v12.1Z"/>
        <path class="cls-2" d="M325.62,251.36c.89,0,1.95-.19,3.19-.58v3.77c-1.26.56-2.81.85-4.65.85-2.03,0-3.5-.51-4.42-1.54-.92-1.02-1.39-2.56-1.39-4.61v-8.95h-2.42v-2.14l2.79-1.69,1.46-3.92h3.24v3.95h5.2v3.8h-5.2v8.95c0,.72.2,1.25.61,1.59.4.34.94.51,1.6.51Z"/>
        <path class="cls-2" d="M340.45,255.4c-2.99,0-5.32-.82-7.01-2.47-1.68-1.65-2.52-3.98-2.52-7.01s.78-5.51,2.33-7.21c1.56-1.7,3.71-2.55,6.45-2.55s4.67.75,6.13,2.24,2.19,3.56,2.19,6.19v2.46h-11.97c.06,1.44.48,2.56,1.28,3.37.8.81,1.92,1.21,3.35,1.21,1.12,0,2.17-.12,3.17-.35s2.04-.6,3.12-1.11v3.92c-.89.44-1.83.77-2.84.99s-2.24.32-3.69.32ZM339.73,239.76c-1.07,0-1.92.34-2.52,1.02s-.96,1.65-1.05,2.9h7.11c-.02-1.25-.35-2.22-.98-2.9s-1.48-1.02-2.56-1.02Z"/>
        <path class="cls-2" d="M367.78,236.5v2.57l-2.91.75c.53.83.8,1.76.8,2.79,0,1.99-.69,3.54-2.08,4.66-1.39,1.11-3.32,1.67-5.79,1.67l-.91-.05-.75-.08c-.52.4-.78.84-.78,1.33,0,.73.93,1.1,2.79,1.1h3.15c2.04,0,3.59.44,4.66,1.31,1.07.87,1.6,2.16,1.6,3.85,0,2.17-.91,3.85-2.71,5.05s-4.41,1.79-7.79,1.79c-2.59,0-4.57-.45-5.94-1.35-1.37-.9-2.05-2.17-2.05-3.79,0-1.12.35-2.05,1.05-2.81s1.72-1.29,3.07-1.61c-.52-.22-.97-.58-1.36-1.09-.39-.5-.58-1.04-.58-1.6,0-.71.21-1.3.61-1.77.41-.47,1-.93,1.78-1.39-.97-.42-1.75-1.1-2.32-2.03-.57-.93-.85-2.03-.85-3.29,0-2.03.66-3.59,1.98-4.7,1.32-1.11,3.2-1.66,5.64-1.66.52,0,1.14.05,1.85.14.71.09,1.17.16,1.37.21h6.47ZM353.45,257.69c0,.7.33,1.25,1,1.64.67.4,1.61.6,2.81.6,1.82,0,3.24-.25,4.27-.75s1.54-1.18,1.54-2.04c0-.7-.3-1.18-.91-1.44s-1.55-.4-2.82-.4h-2.62c-.93,0-1.71.22-2.33.66-.62.44-.94,1.02-.94,1.73ZM355.29,242.58c0,1.01.23,1.8.69,2.39.46.59,1.16.88,2.1.88s1.65-.29,2.09-.88c.44-.59.66-1.38.66-2.39,0-2.24-.92-3.35-2.76-3.35s-2.79,1.12-2.79,3.35Z"/>
        <path class="cls-2" d="M380.68,236.16c.69,0,1.26.05,1.71.15l-.38,4.75c-.41-.11-.91-.17-1.49-.17-1.62,0-2.88.42-3.78,1.25-.9.83-1.35,1.99-1.35,3.49v9.45h-5.06v-18.56h3.83l.75,3.12h.25c.58-1.04,1.35-1.88,2.33-2.52.98-.64,2.04-.95,3.2-.95Z"/>
        <path class="cls-2" d="M397.04,255.07l-.98-2.52h-.13c-.85,1.07-1.73,1.82-2.63,2.23-.9.42-2.08.62-3.53.62-1.78,0-3.18-.51-4.21-1.53-1.02-1.02-1.54-2.47-1.54-4.35s.69-3.42,2.07-4.36c1.38-.94,3.46-1.45,6.23-1.55l3.22-.1v-.81c0-1.88-.96-2.82-2.89-2.82-1.48,0-3.23.45-5.23,1.34l-1.68-3.42c2.14-1.12,4.5-1.68,7.11-1.68s4.4.54,5.73,1.63c1.33,1.08,1.99,2.73,1.99,4.95v12.37h-3.54ZM395.54,246.47l-1.96.07c-1.47.04-2.57.31-3.29.8-.72.49-1.08,1.23-1.08,2.22,0,1.43.82,2.14,2.46,2.14,1.17,0,2.11-.34,2.81-1.01.7-.67,1.05-1.57,1.05-2.69v-1.53Z"/>
        <path class="cls-2" d="M410.34,255.07h-5.06v-25.83h5.06v25.83Z"/>
      </g>
    </g>
  </g>
</svg>