<?xml version="1.0" encoding="UTF-8"?>
<svg id="Capa_2" data-name="Capa 2" xmlns="http://www.w3.org/2000/svg" width="151.73" height="94.99" viewBox="0 0 151.73 94.99">
  <defs>
    <style>
      .cls-1 {
        opacity: .71;
      }

      .cls-1, .cls-2, .cls-3, .cls-4 {
        stroke-width: 0px;
      }

      .cls-1, .cls-2, .cls-4 {
        fill: #fff;
      }

      .cls-2 {
        opacity: .59;
      }

      .cls-3 {
        fill: #ffc400;
      }
    </style>
  </defs>
  <g id="Capa_2-2" data-name="Capa 2">
    <g>
      <g>
        <path class="cls-2" d="M28.42,0c3.85,0,7.08.65,9.71,1.94,2.62,1.29,4.74,2.99,6.35,5.09,1.61,2.1,2.76,4.5,3.46,7.19.7,2.69,1.05,5.44,1.05,8.24,0,3.85-.58,7.21-1.73,10.07-1.15,2.87-2.76,5.21-4.83,7.03-2.06,1.82-4.56,3.18-7.5,4.09-2.94.91-6.19,1.36-9.76,1.36h-8.08v29.91H1.97V0h26.44ZM23.8,33.89c3.01,0,5.44-.91,7.29-2.73,1.85-1.82,2.78-4.65,2.78-8.5s-.81-6.65-2.41-8.6c-1.61-1.96-4.3-2.94-8.08-2.94h-6.3v22.77h6.72Z"/>
        <path class="cls-3" d="M79.46,0v31.74h19.53V0h16.74v74.92h-16.74v-28.77h-19.53v28.77l-16.74-19.1V0h16.74Z"/>
        <path class="cls-1" d="M129.69,4.97c2.87,0,5.54.29,7.98.88,2.45.59,4.56,1.57,6.32,2.94,1.76,1.37,3.13,3.2,4.11,5.49.98,2.29,1.47,5.09,1.47,8.43,0,3.79-.88,7.04-2.65,9.75-1.76,2.71-4.41,4.56-7.94,5.54v.2c3.92.52,7.02,2.19,9.31,5,2.29,2.81,3.43,6.56,3.43,11.27,0,2.74-.36,5.36-1.08,7.84-.72,2.48-1.94,4.65-3.67,6.52-1.73,1.86-3.98,3.35-6.76,4.46-2.78,1.11-6.22,1.67-10.34,1.67h-23.81V4.97h23.61ZM124.2,33.67c3.92,0,6.78-.7,8.57-2.11,1.8-1.4,2.69-3.77,2.69-7.1s-.82-5.68-2.45-7.05c-1.63-1.37-4.21-2.06-7.74-2.06h-5.09v18.32h4.02ZM125.67,64.53c3.4,0,6.14-.75,8.23-2.25,2.09-1.5,3.13-4.28,3.13-8.33,0-2.02-.28-3.71-.83-5.05-.56-1.34-1.31-2.42-2.25-3.23-.95-.82-2.07-1.39-3.38-1.71-1.31-.33-2.74-.49-4.31-.49h-6.07v21.06h5.49Z"/>
        <path class="cls-4" d="M62.72,12l16.66,62.92h-13.22l-2.91-13.31h-16.74l-2.91,13.31h-13.22L47.04,12h15.69ZM61.05,51.21l-6.08-28.29h-.18l-6.08,28.29h12.34Z"/>
      </g>
      <g>
        <path class="cls-4" d="M5.45,92.5l-.54-1.76h-2.69l-.54,1.76H0l2.6-7.41h1.91l2.62,7.41h-1.69ZM4.54,89.43c-.49-1.59-.77-2.49-.83-2.7-.06-.21-.11-.37-.13-.49-.11.43-.43,1.5-.95,3.2h1.92Z"/>
        <path class="cls-4" d="M12.65,90.83c0,.58-.2,1.02-.6,1.32-.4.3-1,.45-1.81.45-.41,0-.76-.03-1.05-.08-.29-.06-.56-.14-.81-.24v-1.27c.29.13.61.25.97.34s.67.14.95.14c.56,0,.84-.16.84-.48,0-.12-.04-.22-.11-.3-.07-.08-.2-.16-.38-.26-.18-.1-.42-.21-.73-.34-.43-.18-.75-.35-.96-.5-.2-.15-.35-.33-.44-.53s-.14-.45-.14-.74c0-.5.19-.89.58-1.16.39-.27.94-.41,1.65-.41s1.34.15,1.98.44l-.46,1.11c-.28-.12-.55-.22-.79-.3-.25-.08-.5-.12-.75-.12-.45,0-.68.12-.68.37,0,.14.07.26.22.36s.47.25.96.45c.44.18.76.35.97.5s.36.33.45.54.15.44.15.72Z"/>
        <path class="cls-4" d="M17.19,92.6c-.91,0-1.62-.25-2.13-.75s-.77-1.21-.77-2.13.24-1.68.71-2.19,1.13-.77,1.96-.77,1.42.23,1.86.68c.44.45.67,1.08.67,1.88v.75h-3.64c.02.44.15.78.39,1.02s.58.37,1.02.37c.34,0,.66-.04.96-.11.3-.07.62-.18.95-.34v1.19c-.27.13-.56.23-.86.3-.31.07-.68.1-1.12.1ZM16.97,87.85c-.33,0-.58.1-.77.31-.19.21-.29.5-.32.88h2.16c0-.38-.11-.67-.3-.88-.19-.21-.45-.31-.78-.31Z"/>
        <path class="cls-4" d="M25.45,90.83c0,.58-.2,1.02-.6,1.32-.4.3-1,.45-1.81.45-.41,0-.76-.03-1.05-.08-.29-.06-.56-.14-.81-.24v-1.27c.29.13.61.25.97.34s.67.14.95.14c.56,0,.84-.16.84-.48,0-.12-.04-.22-.11-.3-.07-.08-.2-.16-.38-.26-.18-.1-.42-.21-.73-.34-.43-.18-.75-.35-.96-.5-.2-.15-.35-.33-.44-.53s-.14-.45-.14-.74c0-.5.19-.89.58-1.16.39-.27.94-.41,1.65-.41s1.34.15,1.98.44l-.46,1.11c-.28-.12-.55-.22-.79-.3-.25-.08-.5-.12-.75-.12-.45,0-.68.12-.68.37,0,.14.07.26.22.36s.47.25.96.45c.44.18.76.35.97.5s.36.33.45.54.15.44.15.72Z"/>
        <path class="cls-4" d="M32.56,89.67c0,.92-.24,1.64-.73,2.16-.48.52-1.16.78-2.02.78-.54,0-1.02-.12-1.43-.36s-.73-.58-.95-1.02c-.22-.44-.33-.96-.33-1.55,0-.92.24-1.64.72-2.15.48-.51,1.16-.77,2.03-.77.54,0,1.02.12,1.43.35.41.24.73.57.95,1.01.22.44.33.96.33,1.55ZM28.66,89.67c0,.56.09.98.28,1.27s.48.43.9.43.71-.14.89-.43c.18-.28.27-.71.27-1.27s-.09-.98-.27-1.26c-.18-.28-.48-.42-.89-.42s-.71.14-.89.42c-.18.28-.27.7-.27,1.26Z"/>
        <path class="cls-4" d="M37.76,86.75c.21,0,.38.02.52.05l-.12,1.44c-.12-.03-.28-.05-.45-.05-.49,0-.87.13-1.15.38s-.41.61-.41,1.06v2.87h-1.54v-5.64h1.17l.23.95h.08c.18-.32.41-.57.71-.77.3-.19.62-.29.97-.29Z"/>
        <path class="cls-4" d="M40,86.24v-.14c.58-.67.97-1.18,1.19-1.52h1.73v.11c-.17.18-.47.44-.9.78-.42.34-.75.6-.99.77h-1.02ZM41.62,92.5h-1.54v-5.64h1.54v5.64Z"/>
        <path class="cls-4" d="M47.59,92.5l-.3-.77h-.04c-.26.33-.53.55-.8.68-.27.13-.63.19-1.07.19-.54,0-.97-.15-1.28-.46-.31-.31-.47-.75-.47-1.32s.21-1.04.63-1.33c.42-.28,1.05-.44,1.9-.47l.98-.03v-.25c0-.57-.29-.86-.88-.86-.45,0-.98.14-1.59.41l-.51-1.04c.65-.34,1.37-.51,2.16-.51s1.34.17,1.74.49c.4.33.61.83.61,1.5v3.76h-1.08ZM47.14,89.89l-.6.02c-.45.01-.78.09-1,.24s-.33.37-.33.68c0,.43.25.65.75.65.36,0,.64-.1.86-.31.21-.21.32-.48.32-.82v-.46Z"/>
        <path class="cls-4" d="M53.84,94.67c-.35,0-.66-.04-.92-.11v-1.3c.27.07.52.1.74.1.34,0,.59-.11.74-.32.15-.21.22-.55.22-1v-6.92h1.57v6.91c0,.86-.2,1.52-.59,1.97-.39.45-.98.68-1.75.68Z"/>
        <path class="cls-4" d="M62.69,92.5l-.21-.72h-.08c-.17.26-.4.46-.7.61s-.65.21-1.04.21c-.66,0-1.16-.18-1.5-.53s-.5-.87-.5-1.53v-3.68h1.54v3.3c0,.41.07.71.22.92s.38.31.69.31c.43,0,.74-.14.93-.43.19-.29.29-.76.29-1.43v-2.66h1.54v5.64h-1.18Z"/>
        <path class="cls-4" d="M69.41,86.75c.21,0,.38.02.52.05l-.12,1.44c-.12-.03-.28-.05-.45-.05-.49,0-.87.13-1.15.38s-.41.61-.41,1.06v2.87h-1.54v-5.64h1.17l.23.95h.08c.18-.32.41-.57.71-.77.3-.19.62-.29.97-.29Z"/>
        <path class="cls-4" d="M71.65,86.24v-.14c.58-.67.97-1.18,1.19-1.52h1.73v.11c-.17.18-.47.44-.9.78-.42.34-.75.6-.99.77h-1.02ZM73.27,92.5h-1.54v-5.64h1.54v5.64Z"/>
        <path class="cls-4" d="M77.45,92.6c-.66,0-1.18-.26-1.56-.77-.38-.52-.57-1.23-.57-2.14s.19-1.65.58-2.16c.38-.52.92-.77,1.59-.77.71,0,1.25.28,1.63.83h.05c-.08-.42-.12-.8-.12-1.13v-1.81h1.54v7.86h-1.18l-.3-.73h-.07c-.35.56-.88.83-1.6.83ZM77.99,91.38c.39,0,.68-.11.87-.34.18-.23.28-.62.3-1.17v-.17c0-.61-.09-1.04-.28-1.3-.19-.26-.49-.39-.91-.39-.34,0-.61.15-.8.44s-.29.71-.29,1.27.1.97.29,1.25c.19.28.47.42.82.42Z"/>
        <path class="cls-4" d="M82.91,85.4c0-.5.28-.75.84-.75s.84.25.84.75c0,.24-.07.42-.21.56-.14.13-.35.2-.63.2-.56,0-.84-.25-.84-.76ZM84.52,92.5h-1.54v-5.64h1.54v5.64Z"/>
        <path class="cls-4" d="M89.2,92.6c-1.76,0-2.63-.96-2.63-2.89,0-.96.24-1.69.72-2.2.48-.51,1.16-.76,2.05-.76.65,0,1.24.13,1.76.38l-.46,1.19c-.24-.1-.47-.18-.68-.24-.21-.06-.42-.09-.63-.09-.8,0-1.2.57-1.2,1.71s.4,1.66,1.2,1.66c.3,0,.57-.04.82-.12.25-.08.5-.2.76-.37v1.32c-.25.16-.5.27-.75.33s-.58.09-.96.09Z"/>
        <path class="cls-4" d="M96.59,92.5l-.3-.77h-.04c-.26.33-.53.55-.8.68-.27.13-.63.19-1.07.19-.54,0-.97-.15-1.28-.46-.31-.31-.47-.75-.47-1.32s.21-1.04.63-1.33c.42-.28,1.05-.44,1.9-.47l.98-.03v-.25c0-.57-.29-.86-.88-.86-.45,0-.98.14-1.59.41l-.51-1.04c.65-.34,1.37-.51,2.16-.51s1.34.17,1.74.49c.4.33.61.83.61,1.5v3.76h-1.08ZM96.13,89.89l-.6.02c-.45.01-.78.09-1,.24s-.33.37-.33.68c0,.43.25.65.75.65.36,0,.64-.1.86-.31.21-.21.32-.48.32-.82v-.46Z"/>
        <path class="cls-4" d="M103.6,92.5v-7.38h1.57v7.38h-1.57Z"/>
        <path class="cls-4" d="M112.89,92.5h-1.54v-3.3c0-.41-.07-.71-.22-.92s-.38-.31-.69-.31c-.43,0-.74.14-.93.43-.19.29-.29.76-.29,1.43v2.66h-1.54v-5.64h1.18l.21.72h.08c.17-.27.41-.48.71-.62.3-.14.64-.21,1.03-.21.66,0,1.15.18,1.49.53.34.35.51.87.51,1.54v3.68Z"/>
        <path class="cls-4" d="M117.63,91.38c.27,0,.59-.06.97-.18v1.15c-.38.17-.86.26-1.41.26-.62,0-1.06-.16-1.35-.47-.28-.31-.42-.78-.42-1.4v-2.72h-.74v-.65l.85-.52.44-1.19h.98v1.2h1.58v1.16h-1.58v2.72c0,.22.06.38.18.48s.29.16.49.16Z"/>
        <path class="cls-4" d="M123.07,92.6c-.91,0-1.62-.25-2.13-.75s-.77-1.21-.77-2.13.24-1.68.71-2.19,1.13-.77,1.96-.77,1.42.23,1.86.68c.44.45.67,1.08.67,1.88v.75h-3.64c.02.44.15.78.39,1.02s.58.37,1.02.37c.34,0,.66-.04.96-.11.3-.07.62-.18.95-.34v1.19c-.27.13-.56.23-.86.3-.31.07-.68.1-1.12.1ZM122.85,87.85c-.33,0-.58.1-.77.31-.19.21-.29.5-.32.88h2.16c0-.38-.11-.67-.3-.88-.19-.21-.45-.31-.78-.31Z"/>
        <path class="cls-4" d="M132.31,86.86v.78l-.88.23c.16.25.24.54.24.85,0,.61-.21,1.08-.63,1.42-.42.34-1.01.51-1.76.51l-.28-.02-.23-.03c-.16.12-.24.26-.24.4,0,.22.28.33.85.33h.96c.62,0,1.09.13,1.42.4.33.27.49.66.49,1.17,0,.66-.28,1.17-.83,1.53-.55.36-1.34.55-2.37.55-.79,0-1.39-.14-1.81-.41-.42-.27-.62-.66-.62-1.15,0-.34.11-.62.32-.85.21-.23.52-.39.93-.49-.16-.07-.3-.18-.41-.33-.12-.15-.18-.32-.18-.49,0-.22.06-.39.19-.54.12-.14.3-.28.54-.42-.3-.13-.53-.33-.71-.62-.17-.28-.26-.62-.26-1,0-.62.2-1.09.6-1.43.4-.34.97-.5,1.72-.5.16,0,.35.01.56.04.22.03.36.05.42.06h1.97ZM127.96,93.3c0,.21.1.38.31.5.2.12.49.18.86.18.55,0,.98-.08,1.3-.23.31-.15.47-.36.47-.62,0-.21-.09-.36-.28-.44-.19-.08-.47-.12-.86-.12h-.8c-.28,0-.52.07-.71.2s-.29.31-.29.53ZM128.52,88.71c0,.31.07.55.21.73s.35.27.64.27.5-.09.64-.27c.13-.18.2-.42.2-.73,0-.68-.28-1.02-.84-1.02s-.85.34-.85,1.02Z"/>
        <path class="cls-4" d="M137.17,86.75c.21,0,.38.02.52.05l-.12,1.44c-.12-.03-.28-.05-.45-.05-.49,0-.87.13-1.15.38s-.41.61-.41,1.06v2.87h-1.54v-5.64h1.17l.23.95h.08c.18-.32.41-.57.71-.77.3-.19.62-.29.97-.29Z"/>
        <path class="cls-4" d="M143.07,92.5l-.3-.77h-.04c-.26.33-.53.55-.8.68-.27.13-.63.19-1.07.19-.54,0-.97-.15-1.28-.46-.31-.31-.47-.75-.47-1.32s.21-1.04.63-1.33c.42-.28,1.05-.44,1.9-.47l.98-.03v-.25c0-.57-.29-.86-.88-.86-.45,0-.98.14-1.59.41l-.51-1.04c.65-.34,1.37-.51,2.16-.51s1.34.17,1.74.49c.4.33.61.83.61,1.5v3.76h-1.08ZM142.62,89.89l-.6.02c-.45.01-.78.09-1,.24s-.33.37-.33.68c0,.43.25.65.75.65.36,0,.64-.1.86-.31.21-.21.32-.48.32-.82v-.46Z"/>
        <path class="cls-4" d="M148.05,92.5h-1.54v-7.86h1.54v7.86Z"/>
      </g>
    </g>
  </g>
</svg>