<?xml version="1.0" encoding="UTF-8"?>
<svg id="Capa_2" data-name="Capa 2" xmlns="http://www.w3.org/2000/svg" width="343.74" height="97.46" viewBox="0 0 343.74 97.46">
  <defs>
    <style>
      .cls-1 {
        fill: #c79900;
      }

      .cls-1, .cls-2, .cls-3, .cls-4 {
        stroke-width: 0px;
      }

      .cls-2 {
        fill: #000;
      }

      .cls-3 {
        fill: #ffc400;
      }

      .cls-4 {
        fill: #fff;
      }
    </style>
  </defs>
  <g id="Capa_2-2" data-name="Capa 2">
    <g>
      <rect class="cls-2" y="82.55" width="179.19" height="14.63"/>
      <g>
        <path class="cls-2" d="M123.97,42.35c1.3,0,2.48.18,3.54.55,1.06.37,1.97.91,2.73,1.63.76.72,1.34,1.59,1.75,2.63.41,1.03.61,2.2.61,3.5s-.2,2.47-.61,3.5c-.41,1.03-.99,1.91-1.75,2.63-.76.72-1.67,1.26-2.73,1.63-1.06.37-2.24.55-3.54.55h-10.14v12.46h-2.77v-29.06h12.9ZM123.36,56.6c1.93,0,3.49-.49,4.68-1.47,1.19-.98,1.79-2.47,1.79-4.48s-.6-3.5-1.79-4.48c-1.19-.98-2.75-1.47-4.68-1.47h-9.52v11.89h9.52Z"/>
        <path class="cls-2" d="M136.75,53.67c.43-.9,1.02-1.63,1.77-2.2s1.62-.99,2.63-1.26c1-.27,2.12-.41,3.34-.41.92,0,1.84.09,2.77.26.92.18,1.75.51,2.48,1,.73.49,1.33,1.17,1.79,2.06.46.88.69,2.03.69,3.44v11.15c0,1.03.5,1.55,1.51,1.55.3,0,.57-.05.81-.16v2.16c-.3.05-.56.1-.79.12-.23.03-.52.04-.88.04-.65,0-1.17-.09-1.57-.26-.39-.18-.7-.43-.92-.75-.22-.33-.36-.71-.43-1.16-.07-.45-.1-.94-.1-1.49h-.08c-.46.68-.93,1.28-1.4,1.81-.48.53-1,.97-1.59,1.32-.58.35-1.25.62-1.99.81-.75.19-1.64.29-2.67.29-.98,0-1.89-.12-2.75-.35-.86-.23-1.6-.6-2.24-1.1-.64-.5-1.14-1.14-1.51-1.91-.37-.77-.55-1.69-.55-2.75,0-1.47.33-2.61.98-3.44.65-.83,1.51-1.46,2.58-1.89,1.07-.43,2.28-.74,3.62-.92,1.34-.18,2.71-.35,4.09-.51.54-.05,1.02-.12,1.42-.2.41-.08.75-.22,1.02-.43.27-.2.48-.48.63-.83.15-.35.22-.81.22-1.38,0-.87-.14-1.58-.43-2.14-.29-.56-.68-1-1.18-1.32-.5-.33-1.09-.55-1.75-.67-.67-.12-1.38-.18-2.14-.18-1.63,0-2.96.39-3.99,1.16s-1.57,2.01-1.63,3.72h-2.56c.08-1.22.34-2.28.77-3.17ZM149.57,59.93c-.16.3-.47.52-.94.65-.46.14-.87.23-1.22.28-1.09.19-2.21.36-3.36.51-1.15.15-2.2.37-3.15.67s-1.73.73-2.34,1.28c-.61.56-.92,1.35-.92,2.38,0,.65.13,1.23.39,1.73.26.5.6.94,1.04,1.3.43.37.94.64,1.51.83.57.19,1.15.29,1.75.29.98,0,1.91-.15,2.81-.45.89-.3,1.67-.73,2.34-1.3.66-.57,1.19-1.26,1.59-2.08.39-.81.59-1.74.59-2.77v-3.34h-.08Z"/>
        <path class="cls-2" d="M172,71.41v-3.79h-.08c-.68,1.41-1.66,2.49-2.95,3.24-1.29.75-2.72,1.12-4.29,1.12-1.33,0-2.46-.18-3.4-.55-.94-.37-1.7-.89-2.28-1.57-.58-.68-1.01-1.51-1.28-2.48-.27-.98-.41-2.09-.41-3.34v-13.64h2.56v13.68c.05,1.9.5,3.34,1.32,4.31.83.98,2.26,1.47,4.29,1.47,1.11,0,2.06-.24,2.85-.71.79-.47,1.44-1.11,1.95-1.89s.9-1.69,1.14-2.71c.24-1.02.37-2.06.37-3.11v-11.03h2.56v21h-2.36Z"/>
        <path class="cls-2" d="M187.26,53.67c.43-.9,1.02-1.63,1.77-2.2s1.62-.99,2.63-1.26c1-.27,2.12-.41,3.34-.41.92,0,1.84.09,2.77.26.92.18,1.75.51,2.48,1,.73.49,1.33,1.17,1.79,2.06.46.88.69,2.03.69,3.44v11.15c0,1.03.5,1.55,1.51,1.55.3,0,.57-.05.81-.16v2.16c-.3.05-.56.1-.79.12-.23.03-.52.04-.88.04-.65,0-1.17-.09-1.57-.26-.39-.18-.7-.43-.92-.75-.22-.33-.36-.71-.43-1.16-.07-.45-.1-.94-.1-1.49h-.08c-.46.68-.93,1.28-1.4,1.81-.48.53-1,.97-1.59,1.32-.58.35-1.25.62-1.99.81-.75.19-1.64.29-2.67.29-.98,0-1.89-.12-2.75-.35-.86-.23-1.6-.6-2.24-1.1-.64-.5-1.14-1.14-1.51-1.91-.37-.77-.55-1.69-.55-2.75,0-1.47.33-2.61.98-3.44.65-.83,1.51-1.46,2.58-1.89,1.07-.43,2.28-.74,3.62-.92,1.34-.18,2.71-.35,4.09-.51.54-.05,1.02-.12,1.42-.2.41-.08.75-.22,1.02-.43.27-.2.48-.48.63-.83.15-.35.22-.81.22-1.38,0-.87-.14-1.58-.43-2.14-.29-.56-.68-1-1.18-1.32-.5-.33-1.09-.55-1.75-.67-.67-.12-1.38-.18-2.14-.18-1.63,0-2.96.39-3.99,1.16-1.03.77-1.57,2.01-1.63,3.72h-2.56c.08-1.22.34-2.28.77-3.17ZM200.08,59.93c-.16.3-.47.52-.94.65-.46.14-.87.23-1.22.28-1.09.19-2.21.36-3.36.51-1.15.15-2.2.37-3.15.67s-1.73.73-2.34,1.28c-.61.56-.92,1.35-.92,2.38,0,.65.13,1.23.39,1.73.26.5.6.94,1.04,1.3.43.37.94.64,1.51.83.57.19,1.15.29,1.75.29.98,0,1.91-.15,2.81-.45.89-.3,1.67-.73,2.34-1.3.66-.57,1.19-1.26,1.59-2.08.39-.81.59-1.74.59-2.77v-3.34h-.08Z"/>
        <path class="cls-2" d="M231.26,42.35l11.4,29.06h-2.97l-3.54-9.04h-13.23l-3.5,9.04h-2.93l11.68-29.06h3.09ZM235.21,60.01l-5.62-14.9-5.82,14.9h11.44Z"/>
        <path class="cls-2" d="M247.34,50.41v3.62h.08c.49-1.28,1.36-2.3,2.6-3.07,1.25-.77,2.62-1.16,4.11-1.16s2.69.19,3.68.57c.99.38,1.78.92,2.38,1.61.6.69,1.02,1.54,1.26,2.54.24,1,.37,2.13.37,3.38v13.51h-2.56v-13.11c0-.89-.08-1.73-.24-2.5s-.45-1.45-.85-2.01c-.41-.57-.96-1.02-1.65-1.34-.69-.33-1.55-.49-2.58-.49s-1.95.18-2.75.55-1.48.87-2.04,1.51-.99,1.4-1.3,2.28c-.31.88-.48,1.84-.51,2.87v12.25h-2.56v-21h2.56Z"/>
        <path class="cls-2" d="M282.79,71.41v-3.99h-.08c-.27.68-.67,1.3-1.2,1.87-.53.57-1.13,1.05-1.81,1.44-.68.39-1.4.7-2.18.92-.77.22-1.54.33-2.3.33-1.6,0-2.99-.29-4.17-.88-1.18-.58-2.16-1.38-2.95-2.4-.79-1.02-1.37-2.2-1.75-3.54-.38-1.34-.57-2.76-.57-4.25s.19-2.91.57-4.25c.38-1.34.96-2.52,1.75-3.54.79-1.02,1.77-1.82,2.95-2.42,1.18-.6,2.57-.89,4.17-.89.79,0,1.55.1,2.3.28.75.19,1.45.48,2.1.88.65.39,1.23.88,1.73,1.45.5.57.89,1.23,1.16,1.99h.08v-12.05h2.56v29.06h-2.36ZM268.73,64.15c.26,1.07.66,2.03,1.22,2.87.56.84,1.27,1.53,2.14,2.06.87.53,1.91.79,3.13.79,1.36,0,2.5-.26,3.44-.79.94-.53,1.7-1.21,2.28-2.06.58-.84,1-1.8,1.26-2.87.26-1.07.39-2.15.39-3.24s-.13-2.16-.39-3.24c-.26-1.07-.68-2.03-1.26-2.87-.58-.84-1.34-1.53-2.28-2.06-.94-.53-2.08-.79-3.44-.79-1.22,0-2.27.26-3.13.79-.87.53-1.58,1.21-2.14,2.06-.56.84-.96,1.8-1.22,2.87-.26,1.07-.39,2.15-.39,3.24s.13,2.16.39,3.24Z"/>
        <path class="cls-2" d="M292.4,50.41v4.93h.08c.65-1.71,1.66-3.02,3.03-3.95,1.37-.92,3.01-1.34,4.91-1.26v2.56c-1.17-.05-2.23.1-3.17.47-.95.37-1.77.89-2.46,1.57-.69.68-1.23,1.49-1.61,2.42-.38.94-.57,1.96-.57,3.07v11.19h-2.57v-21h2.36Z"/>
        <path class="cls-2" d="M304.02,64.47c.26.99.67,1.88,1.24,2.67.57.79,1.29,1.44,2.16,1.95.87.52,1.91.77,3.13.77,1.87,0,3.34-.49,4.4-1.47,1.06-.98,1.79-2.28,2.2-3.91h2.56c-.54,2.39-1.54,4.23-2.99,5.54s-3.51,1.95-6.17,1.95c-1.66,0-3.09-.29-4.29-.88-1.21-.58-2.19-1.38-2.95-2.4-.76-1.02-1.32-2.2-1.69-3.54-.37-1.34-.55-2.76-.55-4.25,0-1.38.18-2.74.55-4.07.37-1.33.93-2.52,1.69-3.56.76-1.04,1.74-1.89,2.95-2.52,1.21-.64,2.64-.96,4.29-.96s3.12.34,4.31,1.02c1.19.68,2.16,1.57,2.91,2.67.75,1.1,1.28,2.36,1.61,3.79.33,1.42.46,2.87.41,4.34h-16.16c0,.92.13,1.88.39,2.87ZM316.72,56.64c-.31-.9-.75-1.69-1.32-2.38-.57-.69-1.26-1.25-2.08-1.67s-1.74-.63-2.77-.63-1.99.21-2.81.63-1.51.98-2.08,1.67c-.57.69-1.02,1.49-1.36,2.4-.34.91-.56,1.84-.67,2.79h13.6c-.03-.98-.2-1.91-.51-2.81Z"/>
        <path class="cls-2" d="M323.78,53.67c.43-.9,1.02-1.63,1.77-2.2s1.62-.99,2.63-1.26c1-.27,2.12-.41,3.34-.41.92,0,1.84.09,2.77.26.92.18,1.75.51,2.48,1,.73.49,1.33,1.17,1.79,2.06.46.88.69,2.03.69,3.44v11.15c0,1.03.5,1.55,1.51,1.55.3,0,.57-.05.81-.16v2.16c-.3.05-.56.1-.79.12-.23.03-.52.04-.88.04-.65,0-1.17-.09-1.57-.26-.39-.18-.7-.43-.92-.75-.22-.33-.36-.71-.43-1.16-.07-.45-.1-.94-.1-1.49h-.08c-.46.68-.93,1.28-1.4,1.81-.48.53-1,.97-1.59,1.32-.58.35-1.25.62-1.99.81-.75.19-1.64.29-2.67.29-.98,0-1.89-.12-2.75-.35-.86-.23-1.6-.6-2.24-1.1-.64-.5-1.14-1.14-1.51-1.91-.37-.77-.55-1.69-.55-2.75,0-1.47.33-2.61.98-3.44.65-.83,1.51-1.46,2.58-1.89,1.07-.43,2.28-.74,3.62-.92,1.34-.18,2.71-.35,4.09-.51.54-.05,1.02-.12,1.42-.2.41-.08.75-.22,1.02-.43.27-.2.48-.48.63-.83.15-.35.22-.81.22-1.38,0-.87-.14-1.58-.43-2.14-.29-.56-.68-1-1.18-1.32-.5-.33-1.09-.55-1.75-.67-.67-.12-1.38-.18-2.14-.18-1.63,0-2.96.39-3.99,1.16-1.03.77-1.57,2.01-1.63,3.72h-2.56c.08-1.22.34-2.28.77-3.17ZM336.6,59.93c-.16.3-.47.52-.94.65-.46.14-.87.23-1.22.28-1.09.19-2.21.36-3.36.51-1.15.15-2.2.37-3.15.67s-1.73.73-2.34,1.28c-.61.56-.92,1.35-.92,2.38,0,.65.13,1.23.39,1.73.26.5.6.94,1.04,1.3.43.37.94.64,1.51.83.57.19,1.15.29,1.75.29.98,0,1.91-.15,2.81-.45.89-.3,1.67-.73,2.34-1.3.66-.57,1.19-1.26,1.59-2.08.39-.81.59-1.74.59-2.77v-3.34h-.08Z"/>
      </g>
      <g>
        <path class="cls-1" d="M188.13,82.65v6.31h8.63v-6.31h1.38v14.53h-1.38v-7.04h-8.63v7.04h-1.38v-14.53h1.38Z"/>
        <path class="cls-1" d="M202.18,93.71c.13.5.34.94.62,1.33s.64.72,1.08.98c.43.26.96.39,1.57.39.94,0,1.67-.24,2.2-.73.53-.49.9-1.14,1.1-1.95h1.28c-.27,1.19-.77,2.12-1.5,2.77-.73.65-1.75.98-3.08.98-.83,0-1.54-.15-2.15-.44-.6-.29-1.1-.69-1.48-1.2s-.66-1.1-.84-1.77c-.18-.67-.27-1.38-.27-2.13,0-.69.09-1.37.27-2.04.18-.66.46-1.26.84-1.78.38-.52.87-.94,1.48-1.26.6-.32,1.32-.48,2.15-.48s1.56.17,2.16.51c.6.34,1.08.78,1.46,1.33.37.55.64,1.18.8,1.89.16.71.23,1.44.2,2.17h-8.08c0,.46.06.94.19,1.43ZM208.53,89.79c-.16-.45-.38-.84-.66-1.19-.28-.35-.63-.62-1.04-.83-.41-.21-.87-.32-1.38-.32s-1,.1-1.4.32c-.41.21-.75.49-1.04.83-.29.35-.51.75-.68,1.2s-.28.92-.33,1.39h6.8c-.01-.49-.1-.96-.25-1.4Z"/>
        <path class="cls-1" d="M213.39,86.68v2.46h.04c.33-.85.83-1.51,1.52-1.97.69-.46,1.5-.67,2.45-.63v1.28c-.58-.03-1.11.05-1.59.23s-.88.44-1.23.78c-.35.34-.61.74-.8,1.21s-.29.98-.29,1.54v5.6h-1.28v-10.5h1.18Z"/>
        <path class="cls-1" d="M220.65,86.68v1.81h.04c.24-.64.68-1.15,1.3-1.54.62-.39,1.31-.58,2.06-.58s1.35.09,1.84.28c.5.19.89.46,1.19.8.3.35.51.77.63,1.27s.18,1.06.18,1.69v6.76h-1.28v-6.55c0-.45-.04-.87-.12-1.25-.08-.39-.22-.72-.43-1.01-.2-.28-.48-.51-.82-.67-.35-.16-.78-.24-1.29-.24s-.97.09-1.37.27c-.4.18-.74.43-1.02.75-.28.32-.5.7-.65,1.14s-.24.92-.25,1.43v6.13h-1.28v-10.5h1.28Z"/>
        <path class="cls-1" d="M230.99,88.3c.22-.45.51-.81.89-1.1.37-.29.81-.5,1.31-.63.5-.14,1.06-.2,1.67-.2.46,0,.92.04,1.38.13s.88.25,1.24.5.67.59.9,1.03.35,1.01.35,1.72v5.58c0,.52.25.77.75.77.15,0,.28-.03.41-.08v1.08c-.15.03-.28.05-.4.06-.12.01-.26.02-.44.02-.33,0-.59-.04-.78-.13-.2-.09-.35-.21-.46-.38-.11-.16-.18-.36-.21-.58-.03-.22-.05-.47-.05-.74h-.04c-.23.34-.46.64-.7.91-.24.26-.5.48-.79.66-.29.18-.62.31-1,.41-.37.09-.82.14-1.33.14-.49,0-.95-.06-1.37-.17-.43-.12-.8-.3-1.12-.55-.32-.25-.57-.57-.75-.96-.18-.39-.27-.84-.27-1.37,0-.73.16-1.31.49-1.72.33-.41.76-.73,1.29-.95.54-.22,1.14-.37,1.81-.46s1.35-.17,2.05-.25c.27-.03.51-.06.71-.1s.37-.11.51-.21c.14-.1.24-.24.32-.42s.11-.41.11-.69c0-.43-.07-.79-.21-1.07-.14-.28-.34-.5-.59-.66-.25-.16-.54-.27-.88-.34-.33-.06-.69-.09-1.07-.09-.81,0-1.48.19-1.99.58s-.79,1.01-.81,1.86h-1.28c.04-.61.17-1.14.39-1.59ZM237.4,91.44c-.08.15-.24.26-.47.33-.23.07-.43.12-.61.14-.54.09-1.1.18-1.68.25s-1.1.19-1.58.34c-.47.15-.87.36-1.17.64-.31.28-.46.68-.46,1.19,0,.33.06.61.19.86.13.25.3.47.52.65s.47.32.75.42c.29.1.58.14.88.14.49,0,.96-.07,1.4-.22.45-.15.84-.37,1.17-.65.33-.29.6-.63.79-1.04.2-.41.29-.87.29-1.38v-1.67h-.04ZM233.57,85.21l2.14-2.87h1.59l-2.69,2.87h-1.04Z"/>
        <path class="cls-1" d="M242.96,86.68v1.81h.04c.24-.64.68-1.15,1.3-1.54.62-.39,1.31-.58,2.06-.58s1.35.09,1.84.28c.5.19.89.46,1.19.8.3.35.51.77.63,1.27s.18,1.06.18,1.69v6.76h-1.28v-6.55c0-.45-.04-.87-.12-1.25-.08-.39-.22-.72-.43-1.01-.2-.28-.48-.51-.82-.67-.35-.16-.78-.24-1.29-.24s-.97.09-1.37.27c-.4.18-.74.43-1.02.75-.28.32-.5.7-.65,1.14s-.24.92-.25,1.43v6.13h-1.28v-10.5h1.28Z"/>
        <path class="cls-1" d="M261.09,97.18v-1.99h-.04c-.14.34-.33.65-.6.94-.26.28-.57.53-.91.72-.34.2-.7.35-1.09.46-.39.11-.77.16-1.15.16-.8,0-1.5-.15-2.09-.44-.59-.29-1.08-.69-1.48-1.2s-.69-1.1-.88-1.77c-.19-.67-.29-1.38-.29-2.13s.09-1.46.29-2.13c.19-.67.48-1.26.88-1.77s.88-.91,1.48-1.21c.59-.3,1.29-.45,2.09-.45.39,0,.78.05,1.15.14.37.1.72.24,1.05.44.33.2.61.44.86.72.25.29.44.62.58,1h.04v-6.02h1.28v14.53h-1.18ZM254.06,93.54c.13.54.33,1.01.61,1.44s.63.76,1.07,1.03c.43.26.96.4,1.57.4.68,0,1.25-.13,1.72-.4.47-.26.85-.61,1.14-1.03s.5-.9.63-1.44c.13-.54.19-1.08.19-1.62s-.06-1.08-.19-1.62-.34-1.01-.63-1.44c-.29-.42-.67-.76-1.14-1.03-.47-.26-1.04-.4-1.72-.4-.61,0-1.13.13-1.57.4-.43.26-.79.61-1.07,1.03-.28.42-.48.9-.61,1.44s-.19,1.08-.19,1.62.06,1.08.19,1.62Z"/>
        <path class="cls-1" d="M266.06,93.71c.13.5.34.94.62,1.33s.64.72,1.08.98c.43.26.96.39,1.57.39.94,0,1.67-.24,2.2-.73.53-.49.9-1.14,1.1-1.95h1.28c-.27,1.19-.77,2.12-1.5,2.77-.73.65-1.75.98-3.08.98-.83,0-1.54-.15-2.15-.44-.6-.29-1.1-.69-1.48-1.2s-.66-1.1-.84-1.77c-.18-.67-.27-1.38-.27-2.13,0-.69.09-1.37.27-2.04.18-.66.46-1.26.84-1.78.38-.52.87-.94,1.48-1.26.6-.32,1.32-.48,2.15-.48s1.56.17,2.16.51c.6.34,1.08.78,1.46,1.33.37.55.64,1.18.8,1.89.16.71.23,1.44.2,2.17h-8.08c0,.46.06.94.19,1.43ZM272.42,89.79c-.16-.45-.38-.84-.66-1.19-.28-.35-.63-.62-1.04-.83-.41-.21-.87-.32-1.38-.32s-1,.1-1.4.32c-.41.21-.75.49-1.04.83-.29.35-.51.75-.68,1.2s-.28.92-.33,1.39h6.8c-.01-.49-.1-.96-.25-1.4Z"/>
        <path class="cls-1" d="M283.94,96.1v1.08h-8.77v-1.04l6.86-8.38h-6.39v-1.08h8.02v.92l-6.94,8.51h7.23Z"/>
        <path class="cls-1" d="M298.37,82.65c.61,0,1.2.06,1.76.17.56.12,1.06.31,1.49.59.43.28.77.64,1.03,1.1.26.45.39,1.02.39,1.7,0,.38-.06.75-.18,1.11s-.29.69-.52.98c-.22.29-.49.54-.79.74s-.65.35-1.03.43v.04c.94.12,1.68.51,2.24,1.15.56.65.83,1.44.83,2.39,0,.23-.02.49-.06.78-.04.29-.12.59-.24.9-.12.31-.3.61-.53.91-.23.3-.54.56-.93.78-.39.22-.86.41-1.42.55-.56.14-1.24.21-2.03.21h-6.15v-14.53h6.15ZM298.37,89.02c.56,0,1.04-.06,1.45-.19.41-.13.75-.31,1.02-.53.27-.22.47-.48.61-.78s.2-.62.2-.96c0-1.82-1.09-2.73-3.28-2.73h-4.76v5.19h4.76ZM298.37,96c.52,0,1-.04,1.47-.13.46-.09.87-.25,1.22-.48.35-.23.63-.54.83-.93.2-.39.3-.87.3-1.46,0-.94-.33-1.64-.99-2.11-.66-.47-1.6-.7-2.84-.7h-4.76v5.8h4.76Z"/>
        <path class="cls-1" d="M306.91,93.71c.13.5.34.94.62,1.33s.64.72,1.08.98c.43.26.96.39,1.57.39.94,0,1.67-.24,2.2-.73.53-.49.9-1.14,1.1-1.95h1.28c-.27,1.19-.77,2.12-1.5,2.77-.73.65-1.75.98-3.08.98-.83,0-1.54-.15-2.15-.44-.6-.29-1.1-.69-1.48-1.2s-.66-1.1-.84-1.77c-.18-.67-.27-1.38-.27-2.13,0-.69.09-1.37.27-2.04.18-.66.46-1.26.84-1.78.38-.52.87-.94,1.48-1.26.6-.32,1.32-.48,2.15-.48s1.56.17,2.16.51c.6.34,1.08.78,1.46,1.33.37.55.64,1.18.8,1.89.16.71.23,1.44.2,2.17h-8.08c0,.46.06.94.19,1.43ZM313.26,89.79c-.16-.45-.38-.84-.66-1.19-.28-.35-.63-.62-1.04-.83-.41-.21-.87-.32-1.38-.32s-1,.1-1.4.32c-.41.21-.75.49-1.04.83-.29.35-.51.75-.68,1.2s-.28.92-.33,1.39h6.8c-.01-.49-.1-.96-.25-1.4Z"/>
        <path class="cls-1" d="M317.71,86.68v2.46h.04c.33-.85.83-1.51,1.52-1.97.69-.46,1.5-.67,2.45-.63v1.28c-.58-.03-1.11.05-1.59.23s-.88.44-1.23.78c-.35.34-.61.74-.8,1.21s-.29.98-.29,1.54v5.6h-1.28v-10.5h1.18Z"/>
        <path class="cls-1" d="M324.52,86.68v2.46h.04c.33-.85.83-1.51,1.52-1.97.69-.46,1.5-.67,2.45-.63v1.28c-.58-.03-1.11.05-1.59.23s-.88.44-1.23.78c-.35.34-.61.74-.8,1.21s-.29.98-.29,1.54v5.6h-1.28v-10.5h1.18Z"/>
        <path class="cls-1" d="M329.61,85.21l2.14-2.87h1.59l-2.69,2.87h-1.04ZM330.18,86.68h1.28v10.5h-1.28v-10.5Z"/>
        <path class="cls-1" d="M340.9,86.82c.62.3,1.14.7,1.56,1.2.42.5.74,1.09.96,1.76.22.67.33,1.39.33,2.15s-.11,1.48-.33,2.15c-.22.67-.54,1.26-.96,1.76-.42.5-.94.9-1.56,1.19-.62.29-1.33.44-2.13.44s-1.51-.15-2.13-.44c-.62-.29-1.14-.69-1.56-1.19-.42-.5-.74-1.09-.96-1.76-.22-.67-.33-1.39-.33-2.15s.11-1.48.33-2.15c.22-.67.54-1.26.96-1.76.42-.5.94-.9,1.56-1.2.62-.3,1.33-.45,2.13-.45s1.51.15,2.13.45ZM337.16,87.84c-.46.26-.84.6-1.15,1.02-.31.42-.54.9-.69,1.43-.16.54-.23,1.08-.23,1.64s.08,1.1.23,1.64.39,1.01.69,1.43c.3.42.69.76,1.15,1.02.46.26,1,.39,1.61.39s1.15-.13,1.61-.39c.46-.26.84-.6,1.15-1.02.31-.42.54-.9.69-1.43s.23-1.08.23-1.64-.08-1.1-.23-1.64c-.16-.54-.39-1.01-.69-1.43-.3-.42-.69-.76-1.15-1.02-.46-.26-1-.39-1.61-.39s-1.15.13-1.61.39Z"/>
      </g>
      <rect class="cls-3" x="179.19" width="2.63" height="97.18"/>
      <g>
        <path class="cls-4" d="M112.62,86.35h1.41l2.92,7.58h-1.42l-.71-2.01h-3.03l-.71,2.01h-1.37l2.91-7.58ZM112.15,90.91h2.32l-1.14-3.26h-.03l-1.15,3.26Z"/>
        <path class="cls-4" d="M119.59,86.35h3.68c.68,0,1.22.16,1.63.47.41.31.62.78.62,1.41,0,.38-.09.71-.28.98s-.46.48-.8.63v.02c.47.1.82.32,1.06.66s.36.77.36,1.29c0,.3-.05.58-.16.83-.11.26-.27.48-.5.67s-.52.34-.87.45-.78.16-1.26.16h-3.48v-7.58ZM120.91,89.52h2.17c.32,0,.58-.09.8-.27.21-.18.32-.44.32-.78,0-.38-.1-.65-.29-.81-.19-.16-.47-.23-.83-.23h-2.17v2.09ZM120.91,92.85h2.35c.4,0,.72-.1.94-.31.22-.21.33-.5.33-.89s-.11-.66-.33-.87c-.22-.2-.54-.3-.94-.3h-2.35v2.37Z"/>
        <path class="cls-4" d="M132.2,86.17c.57,0,1.07.11,1.52.32.45.21.83.5,1.14.86.31.36.55.78.72,1.26s.25.99.25,1.53-.08,1.06-.25,1.54c-.17.48-.41.9-.72,1.26-.31.36-.69.65-1.14.85-.45.21-.96.31-1.52.31s-1.07-.1-1.52-.31c-.45-.21-.83-.49-1.14-.85-.31-.36-.55-.78-.72-1.26-.17-.48-.25-.99-.25-1.54s.08-1.05.25-1.53c.17-.48.4-.9.72-1.26.31-.36.69-.65,1.14-.86s.96-.32,1.52-.32ZM132.2,87.25c-.4,0-.75.08-1.04.24-.29.16-.53.38-.72.65-.18.27-.32.58-.41.93s-.13.7-.13,1.06.04.72.13,1.06.22.66.41.93c.18.27.42.49.72.65.29.16.64.24,1.04.24s.75-.08,1.05-.24c.29-.16.53-.38.72-.65.18-.27.32-.58.41-.93.09-.35.13-.7.13-1.06s-.04-.71-.13-1.06c-.09-.35-.22-.66-.41-.93-.18-.27-.42-.49-.72-.65-.29-.16-.64-.24-1.05-.24Z"/>
        <path class="cls-4" d="M145.57,93.93h-.85l-.2-.89c-.35.4-.71.68-1.06.84-.35.16-.76.23-1.22.23-.57,0-1.07-.1-1.52-.31-.45-.21-.83-.49-1.14-.85-.31-.36-.55-.78-.72-1.26-.17-.48-.25-.99-.25-1.54s.08-1.05.25-1.53.41-.9.72-1.26c.31-.36.69-.65,1.14-.86.45-.21.96-.32,1.52-.32.41,0,.8.05,1.17.16.37.11.7.27.99.49.29.22.53.49.72.81s.31.7.36,1.13h-1.3c-.04-.25-.11-.47-.23-.65-.12-.19-.26-.34-.44-.47s-.38-.22-.59-.29c-.22-.06-.45-.1-.69-.1-.4,0-.75.08-1.05.24-.29.16-.53.38-.72.65-.18.27-.32.58-.41.93-.09.35-.13.7-.13,1.06s.04.72.13,1.06c.09.35.22.66.41.93.18.27.42.49.72.65.29.16.64.24,1.05.24.34,0,.64-.04.9-.13s.48-.23.66-.41c.18-.18.32-.4.41-.66s.14-.55.15-.87h-2.02v-1.01h3.23v3.99Z"/>
        <path class="cls-4" d="M150.95,86.35h1.41l2.92,7.58h-1.42l-.71-2.01h-3.03l-.71,2.01h-1.37l2.91-7.58ZM150.48,90.91h2.32l-1.14-3.26h-.03l-1.15,3.26Z"/>
        <path class="cls-4" d="M157.92,86.35h3.14c.58,0,1.08.1,1.51.3.42.2.77.47,1.04.81.27.34.47.75.6,1.21s.2.95.2,1.48-.07,1.02-.2,1.48-.33.86-.6,1.21c-.27.34-.62.61-1.04.81s-.93.3-1.51.3h-3.14v-7.58ZM159.24,92.85h1.31c.52,0,.94-.07,1.27-.21s.59-.33.77-.57.32-.53.38-.86.1-.69.1-1.07-.03-.74-.1-1.07-.2-.62-.38-.86-.45-.44-.77-.57c-.33-.14-.75-.21-1.27-.21h-1.31v5.41Z"/>
        <path class="cls-4" d="M169.52,86.35h1.41l2.92,7.58h-1.42l-.71-2.01h-3.03l-.71,2.01h-1.37l2.91-7.58ZM169.05,90.91h2.32l-1.14-3.26h-.03l-1.15,3.26Z"/>
      </g>
    </g>
  </g>
</svg>