<?xml version="1.0" encoding="UTF-8"?>
<svg id="Capa_2" data-name="Capa 2" xmlns="http://www.w3.org/2000/svg" width="179.78" height="64.85" viewBox="0 0 179.78 64.85">
  <defs>
    <style>
      .cls-1 {
        fill: #000;
      }

      .cls-1, .cls-2, .cls-3 {
        stroke-width: 0px;
      }

      .cls-2 {
        fill: #ffc400;
      }

      .cls-3 {
        fill: #fff;
      }
    </style>
  </defs>
  <g id="Capa_2-2" data-name="Capa 2">
    <g>
      <rect class="cls-3" x="0" y="26.6" width="72.33" height="9.55"/>
      <g>
        <path class="cls-3" d="M36.27.35c.85,0,1.62.12,2.31.36.69.24,1.29.59,1.78,1.06.5.47.88,1.04,1.14,1.71.27.67.4,1.44.4,2.29s-.13,1.61-.4,2.29c-.27.67-.65,1.25-1.14,1.71-.5.47-1.09.82-1.78,1.06-.69.24-1.46.36-2.31.36h-6.62v8.13h-1.81V.35h8.43ZM35.87,9.65c1.26,0,2.28-.32,3.06-.96.78-.64,1.17-1.61,1.17-2.92s-.39-2.29-1.17-2.92c-.78-.64-1.8-.96-3.06-.96h-6.22v7.76h6.22Z"/>
        <path class="cls-3" d="M44.61,7.74c.28-.59.67-1.06,1.16-1.44s1.06-.65,1.72-.82c.65-.18,1.38-.27,2.18-.27.6,0,1.2.06,1.81.17.6.12,1.14.33,1.62.65.48.32.87.77,1.17,1.34.3.58.45,1.33.45,2.25v7.28c0,.67.33,1.01.98,1.01.2,0,.37-.04.53-.11v1.41c-.2.04-.37.06-.52.08-.15.02-.34.03-.57.03-.43,0-.77-.06-1.02-.17-.26-.12-.46-.28-.6-.49-.14-.21-.23-.47-.28-.76-.04-.29-.07-.62-.07-.97h-.05c-.3.44-.61.84-.92,1.18-.31.35-.66.63-1.04.86-.38.23-.82.41-1.3.53-.49.12-1.07.19-1.74.19-.64,0-1.24-.08-1.79-.23-.56-.15-1.05-.39-1.46-.72-.42-.33-.74-.74-.98-1.25-.24-.51-.36-1.1-.36-1.79,0-.96.21-1.71.64-2.25.43-.54.99-.95,1.69-1.24.7-.28,1.49-.48,2.37-.6.88-.12,1.77-.23,2.67-.33.35-.04.66-.08.93-.13.27-.05.49-.15.66-.28.18-.13.31-.31.41-.55.1-.23.15-.53.15-.9,0-.57-.09-1.03-.28-1.4-.19-.36-.44-.65-.77-.86-.33-.21-.71-.36-1.14-.44-.43-.08-.9-.12-1.4-.12-1.06,0-1.93.25-2.61.76-.67.51-1.03,1.32-1.06,2.43h-1.67c.05-.8.22-1.49.51-2.07ZM52.99,11.83c-.11.2-.31.34-.61.43-.3.09-.57.15-.8.19-.71.12-1.44.24-2.19.33-.75.1-1.44.24-2.06.44-.62.2-1.13.47-1.53.84-.4.36-.6.88-.6,1.56,0,.43.08.8.25,1.13.17.33.39.61.68.85.28.24.61.42.98.54.37.12.75.19,1.14.19.64,0,1.25-.1,1.83-.29.58-.19,1.09-.48,1.53-.85.43-.37.78-.82,1.04-1.36.26-.53.39-1.13.39-1.81v-2.18h-.05Z"/>
        <path class="cls-3" d="M67.63,19.33v-2.47h-.05c-.44.92-1.09,1.63-1.93,2.11-.84.49-1.78.73-2.8.73-.87,0-1.61-.12-2.22-.36-.61-.24-1.11-.58-1.49-1.02-.38-.44-.66-.98-.84-1.62-.18-.64-.27-1.36-.27-2.18V5.61h1.67v8.93c.04,1.24.32,2.18.86,2.82s1.48.96,2.8.96c.73,0,1.35-.16,1.86-.47.51-.31.94-.72,1.28-1.24s.59-1.1.74-1.77c.16-.66.24-1.34.24-2.03v-7.2h1.67v13.72h-1.54Z"/>
        <path class="cls-3" d="M77.6,7.74c.28-.59.67-1.06,1.16-1.44s1.06-.65,1.72-.82c.65-.18,1.38-.27,2.18-.27.6,0,1.2.06,1.81.17.6.12,1.14.33,1.62.65.48.32.87.77,1.17,1.34.3.58.45,1.33.45,2.25v7.28c0,.67.33,1.01.98,1.01.2,0,.37-.04.53-.11v1.41c-.2.04-.37.06-.52.08-.15.02-.34.03-.57.03-.43,0-.77-.06-1.02-.17-.26-.12-.46-.28-.6-.49-.14-.21-.23-.47-.28-.76-.04-.29-.07-.62-.07-.97h-.05c-.3.44-.61.84-.92,1.18-.31.35-.66.63-1.04.86-.38.23-.82.41-1.3.53-.49.12-1.07.19-1.74.19-.64,0-1.24-.08-1.79-.23-.56-.15-1.05-.39-1.46-.72-.42-.33-.74-.74-.98-1.25-.24-.51-.36-1.1-.36-1.79,0-.96.21-1.71.64-2.25.43-.54.99-.95,1.69-1.24.7-.28,1.49-.48,2.37-.6.88-.12,1.77-.23,2.67-.33.35-.04.66-.08.93-.13.27-.05.49-.15.66-.28.18-.13.31-.31.41-.55.1-.23.15-.53.15-.9,0-.57-.09-1.03-.28-1.4-.19-.36-.44-.65-.77-.86-.33-.21-.71-.36-1.14-.44-.43-.08-.9-.12-1.4-.12-1.06,0-1.93.25-2.61.76-.67.51-1.03,1.32-1.06,2.43h-1.67c.05-.8.22-1.49.51-2.07ZM85.97,11.83c-.11.2-.31.34-.61.43-.3.09-.57.15-.8.19-.71.12-1.44.24-2.19.33-.75.1-1.44.24-2.06.44-.62.2-1.13.47-1.53.84-.4.36-.6.88-.6,1.56,0,.43.08.8.25,1.13.17.33.39.61.68.85.28.24.61.42.98.54.37.12.75.19,1.14.19.64,0,1.25-.1,1.83-.29.58-.19,1.09-.48,1.53-.85.43-.37.78-.82,1.04-1.36.26-.53.39-1.13.39-1.81v-2.18h-.05Z"/>
        <path class="cls-3" d="M106.33.35l7.44,18.98h-1.94l-2.31-5.9h-8.64l-2.29,5.9h-1.91L104.31.35h2.02ZM108.91,11.88l-3.67-9.73-3.8,9.73h7.47Z"/>
        <path class="cls-3" d="M116.83,5.61v2.37h.05c.32-.83.89-1.5,1.7-2.01.82-.51,1.71-.76,2.68-.76s1.76.12,2.41.37c.65.25,1.17.6,1.56,1.05.39.45.66,1.01.82,1.66.16.66.24,1.39.24,2.21v8.82h-1.67v-8.56c0-.58-.05-1.13-.16-1.63s-.29-.94-.56-1.32c-.27-.37-.62-.66-1.08-.88-.45-.21-1.01-.32-1.69-.32s-1.27.12-1.79.36-.97.57-1.33.98-.65.91-.85,1.49c-.2.58-.31,1.2-.33,1.87v8h-1.67V5.61h1.67Z"/>
        <path class="cls-3" d="M139.98,19.33v-2.6h-.05c-.18.44-.44.85-.78,1.22-.35.37-.74.69-1.18.94-.44.26-.92.46-1.42.6-.5.14-1.01.21-1.5.21-1.05,0-1.95-.19-2.72-.57-.77-.38-1.41-.9-1.93-1.57-.51-.66-.89-1.43-1.14-2.31-.25-.88-.37-1.8-.37-2.78s.12-1.9.37-2.78c.25-.88.63-1.65,1.14-2.31.51-.66,1.16-1.19,1.93-1.58.77-.39,1.68-.58,2.72-.58.51,0,1.01.06,1.5.19.49.12.94.31,1.37.57.43.26.8.57,1.13.94.33.37.58.81.76,1.3h.05V.35h1.67v18.98h-1.54ZM130.8,14.58c.17.7.43,1.32.8,1.87.36.55.83,1,1.4,1.34.57.35,1.25.52,2.05.52.89,0,1.64-.17,2.25-.52.61-.35,1.11-.79,1.49-1.34.38-.55.66-1.17.82-1.87.17-.7.25-1.4.25-2.11s-.08-1.41-.25-2.11c-.17-.7-.44-1.32-.82-1.87-.38-.55-.88-1-1.49-1.34-.61-.35-1.36-.52-2.25-.52-.8,0-1.48.17-2.05.52-.57.35-1.03.79-1.4,1.34-.36.55-.63,1.17-.8,1.87-.17.7-.25,1.4-.25,2.11s.08,1.41.25,2.11Z"/>
        <path class="cls-3" d="M146.26,5.61v3.22h.05c.43-1.12,1.09-1.98,1.98-2.58.9-.6,1.96-.88,3.2-.82v1.67c-.76-.04-1.45.07-2.07.31-.62.24-1.16.58-1.61,1.02-.45.44-.8.97-1.05,1.58-.25.61-.37,1.28-.37,2.01v7.31h-1.68V5.61h1.54Z"/>
        <path class="cls-3" d="M153.84,14.79c.17.65.44,1.23.81,1.74.37.51.84.94,1.41,1.28.57.34,1.25.51,2.05.51,1.22,0,2.18-.32,2.87-.96.69-.64,1.17-1.49,1.44-2.55h1.67c-.35,1.56-1.01,2.76-1.95,3.61-.95.85-2.29,1.28-4.03,1.28-1.08,0-2.02-.19-2.8-.57-.79-.38-1.43-.9-1.93-1.57-.5-.66-.86-1.43-1.1-2.31-.24-.88-.36-1.8-.36-2.78,0-.9.12-1.79.36-2.66.24-.87.61-1.64,1.1-2.33.5-.68,1.14-1.23,1.93-1.65.79-.42,1.72-.62,2.8-.62s2.04.22,2.82.66c.78.44,1.41,1.02,1.9,1.74.49.72.84,1.54,1.05,2.47s.3,1.87.27,2.83h-10.55c0,.6.08,1.23.25,1.87ZM162.14,9.68c-.2-.59-.49-1.1-.86-1.56-.37-.45-.82-.81-1.36-1.09s-1.13-.41-1.81-.41-1.3.14-1.83.41-.98.64-1.36,1.09c-.37.45-.67.98-.89,1.57-.22.59-.37,1.2-.44,1.82h8.88c-.02-.64-.13-1.25-.33-1.83Z"/>
        <path class="cls-3" d="M166.75,7.74c.28-.59.67-1.06,1.16-1.44s1.06-.65,1.72-.82c.65-.18,1.38-.27,2.18-.27.6,0,1.2.06,1.81.17.6.12,1.14.33,1.62.65.48.32.87.77,1.17,1.34.3.58.45,1.33.45,2.25v7.28c0,.67.33,1.01.98,1.01.2,0,.37-.04.53-.11v1.41c-.2.04-.37.06-.52.08-.15.02-.34.03-.57.03-.43,0-.77-.06-1.02-.17-.26-.12-.46-.28-.6-.49-.14-.21-.23-.47-.28-.76-.04-.29-.07-.62-.07-.97h-.05c-.3.44-.61.84-.92,1.18-.31.35-.66.63-1.04.86-.38.23-.82.41-1.3.53-.49.12-1.07.19-1.74.19-.64,0-1.24-.08-1.79-.23-.56-.15-1.05-.39-1.46-.72-.42-.33-.74-.74-.98-1.25-.24-.51-.36-1.1-.36-1.79,0-.96.21-1.71.64-2.25.43-.54.99-.95,1.69-1.24.7-.28,1.49-.48,2.37-.6.88-.12,1.77-.23,2.67-.33.35-.04.66-.08.93-.13.27-.05.49-.15.66-.28.18-.13.31-.31.41-.55.1-.23.15-.53.15-.9,0-.57-.09-1.03-.28-1.4-.19-.36-.44-.65-.77-.86-.33-.21-.71-.36-1.14-.44-.43-.08-.9-.12-1.4-.12-1.06,0-1.93.25-2.61.76-.67.51-1.03,1.32-1.06,2.43h-1.67c.05-.8.22-1.49.51-2.07ZM175.12,11.83c-.11.2-.31.34-.61.43-.3.09-.57.15-.8.19-.71.12-1.44.24-2.19.33-.75.1-1.44.24-2.06.44-.62.2-1.13.47-1.53.84-.4.36-.6.88-.6,1.56,0,.43.08.8.25,1.13.17.33.39.61.68.85.28.24.61.42.98.54.37.12.75.19,1.14.19.64,0,1.25-.1,1.83-.29.58-.19,1.09-.48,1.53-.85.43-.37.78-.82,1.04-1.36.26-.53.39-1.13.39-1.81v-2.18h-.05Z"/>
      </g>
      <g>
        <path class="cls-2" d="M78.17,26.66v4.12h5.64v-4.12h.9v9.49h-.9v-4.6h-5.64v4.6h-.9v-9.49h.9Z"/>
        <path class="cls-2" d="M87.34,33.89c.08.32.22.61.41.87.19.26.42.47.71.64.28.17.62.25,1.02.25.61,0,1.09-.16,1.43-.48.35-.32.58-.74.72-1.28h.84c-.18.78-.5,1.38-.98,1.81-.47.43-1.14.64-2.01.64-.54,0-1.01-.1-1.4-.29-.39-.19-.72-.45-.96-.78s-.43-.72-.55-1.16c-.12-.44-.18-.9-.18-1.39,0-.45.06-.89.18-1.33.12-.43.3-.82.55-1.16.25-.34.57-.62.96-.82.39-.21.86-.31,1.4-.31s1.02.11,1.41.33.71.51.95.87c.24.36.42.77.53,1.24s.15.94.13,1.42h-5.28c0,.3.04.61.13.94ZM91.49,31.33c-.1-.29-.25-.55-.43-.78-.19-.23-.41-.41-.68-.54s-.57-.21-.9-.21-.65.07-.92.21c-.27.14-.49.32-.68.54-.19.23-.33.49-.45.78-.11.3-.18.6-.22.91h4.44c0-.32-.06-.62-.17-.92Z"/>
        <path class="cls-2" d="M94.66,29.29v1.61h.03c.21-.56.54-.99.99-1.29.45-.3.98-.44,1.6-.41v.84c-.38-.02-.73.03-1.04.15-.31.12-.58.29-.8.51-.23.22-.4.49-.53.79s-.19.64-.19,1v3.66h-.84v-6.86h.77Z"/>
        <path class="cls-2" d="M99.4,29.29v1.18h.03c.16-.42.44-.75.85-1,.41-.25.85-.38,1.34-.38s.88.06,1.2.19c.32.12.58.3.78.53.19.23.33.5.41.83.08.33.12.7.12,1.1v4.41h-.84v-4.28c0-.29-.03-.57-.08-.82-.05-.25-.15-.47-.28-.66-.13-.19-.31-.33-.54-.44-.23-.11-.51-.16-.84-.16s-.64.06-.9.18c-.26.12-.48.28-.66.49s-.32.46-.43.74c-.1.29-.16.6-.17.94v4h-.84v-6.86h.84Z"/>
        <path class="cls-2" d="M106.15,30.36c.14-.29.33-.53.58-.72.24-.19.53-.32.86-.41.33-.09.69-.13,1.09-.13.3,0,.6.03.9.09.3.06.57.17.81.33.24.16.43.38.58.67.15.29.23.66.23,1.12v3.64c0,.34.16.5.49.5.1,0,.19-.02.27-.05v.71c-.1.02-.18.03-.26.04-.08,0-.17.01-.29.01-.21,0-.38-.03-.51-.09-.13-.06-.23-.14-.3-.25-.07-.11-.12-.23-.14-.38-.02-.15-.03-.31-.03-.49h-.03c-.15.22-.3.42-.46.59s-.33.32-.52.43-.41.2-.65.27c-.24.06-.53.09-.87.09-.32,0-.62-.04-.9-.11s-.52-.2-.73-.36c-.21-.16-.37-.37-.49-.62-.12-.25-.18-.55-.18-.9,0-.48.11-.85.32-1.12.21-.27.49-.48.84-.62.35-.14.74-.24,1.18-.3.44-.06.88-.11,1.33-.17.18-.02.33-.04.47-.07.13-.03.24-.07.33-.14.09-.07.16-.16.21-.27.05-.12.07-.27.07-.45,0-.28-.05-.52-.14-.7-.09-.18-.22-.33-.39-.43-.16-.11-.35-.18-.57-.22-.22-.04-.45-.06-.7-.06-.53,0-.97.13-1.3.38-.34.25-.51.66-.53,1.22h-.84c.03-.4.11-.74.25-1.04ZM110.34,32.4c-.05.1-.15.17-.31.21-.15.04-.28.08-.4.09-.35.06-.72.12-1.1.17-.38.05-.72.12-1.03.22-.31.1-.57.24-.76.42s-.3.44-.3.78c0,.21.04.4.13.56s.2.31.34.43c.14.12.31.21.49.27.19.06.38.09.57.09.32,0,.62-.05.92-.15s.55-.24.76-.42c.22-.19.39-.41.52-.68.13-.27.19-.57.19-.9v-1.09h-.03ZM107.84,28.34l1.4-1.87h1.04l-1.75,1.87h-.68Z"/>
        <path class="cls-2" d="M113.97,29.29v1.18h.03c.16-.42.44-.75.85-1,.41-.25.85-.38,1.34-.38s.88.06,1.2.19c.32.12.58.3.78.53.19.23.33.5.41.83.08.33.12.7.12,1.1v4.41h-.84v-4.28c0-.29-.03-.57-.08-.82-.05-.25-.15-.47-.28-.66-.13-.19-.31-.33-.54-.44-.23-.11-.51-.16-.84-.16s-.64.06-.9.18c-.26.12-.48.28-.66.49s-.32.46-.43.74c-.1.29-.16.6-.17.94v4h-.84v-6.86h.84Z"/>
        <path class="cls-2" d="M125.81,36.15v-1.3h-.03c-.09.22-.22.43-.39.61-.17.19-.37.34-.59.47-.22.13-.46.23-.71.3-.25.07-.5.11-.75.11-.52,0-.98-.1-1.36-.29-.39-.19-.71-.45-.96-.78s-.45-.72-.57-1.16-.19-.9-.19-1.39.06-.95.19-1.39.31-.82.57-1.16c.26-.33.58-.6.96-.79.38-.2.84-.29,1.36-.29.26,0,.51.03.75.09.24.06.47.16.68.29.21.13.4.29.57.47.16.19.29.4.38.65h.03v-3.93h.84v9.49h-.77ZM121.22,33.78c.08.35.22.66.4.94.18.28.41.5.7.67.28.17.62.26,1.02.26.44,0,.82-.09,1.12-.26.31-.17.55-.4.75-.67.19-.27.33-.59.41-.94.08-.35.13-.7.13-1.06s-.04-.71-.13-1.06c-.08-.35-.22-.66-.41-.94-.19-.27-.44-.5-.75-.67s-.68-.26-1.12-.26c-.4,0-.74.09-1.02.26-.28.17-.52.4-.7.67-.18.28-.31.59-.4.94-.08.35-.13.7-.13,1.06s.04.71.13,1.06Z"/>
        <path class="cls-2" d="M129.06,33.89c.08.32.22.61.41.87.19.26.42.47.71.64.28.17.62.25,1.02.25.61,0,1.09-.16,1.43-.48.35-.32.58-.74.72-1.28h.84c-.18.78-.5,1.38-.98,1.81-.47.43-1.14.64-2.01.64-.54,0-1.01-.1-1.4-.29-.39-.19-.72-.45-.96-.78s-.43-.72-.55-1.16c-.12-.44-.18-.9-.18-1.39,0-.45.06-.89.18-1.33.12-.43.3-.82.55-1.16.25-.34.57-.62.96-.82.39-.21.86-.31,1.4-.31s1.02.11,1.41.33.71.51.95.87c.24.36.42.77.53,1.24s.15.94.13,1.42h-5.28c0,.3.04.61.13.94ZM133.21,31.33c-.1-.29-.25-.55-.43-.78-.19-.23-.41-.41-.68-.54s-.57-.21-.9-.21-.65.07-.92.21c-.27.14-.49.32-.68.54-.19.23-.33.49-.45.78-.11.3-.18.6-.22.91h4.44c0-.32-.06-.62-.17-.92Z"/>
        <path class="cls-2" d="M140.73,35.45v.7h-5.73v-.68l4.48-5.48h-4.17v-.7h5.24v.6l-4.53,5.56h4.72Z"/>
        <path class="cls-2" d="M150.16,26.66c.4,0,.78.04,1.15.11.37.08.69.2.97.38.28.18.5.42.67.72.17.3.25.67.25,1.11,0,.25-.04.49-.12.72-.08.24-.19.45-.34.64-.15.19-.32.35-.52.48s-.42.23-.67.28v.03c.61.08,1.1.33,1.46.75s.54.94.54,1.56c0,.15-.01.32-.04.51-.03.19-.08.39-.16.58-.08.2-.2.4-.35.59-.15.19-.35.37-.6.51-.25.15-.56.27-.93.36-.37.09-.81.14-1.32.14h-4.01v-9.49h4.01ZM150.16,30.82c.36,0,.68-.04.94-.13.27-.08.49-.2.67-.34.18-.15.31-.32.4-.51.09-.2.13-.4.13-.62,0-1.19-.71-1.78-2.14-1.78h-3.11v3.39h3.11ZM150.16,35.38c.34,0,.66-.03.96-.09.3-.06.57-.16.8-.31.23-.15.41-.35.54-.6.13-.25.2-.57.2-.95,0-.61-.21-1.07-.64-1.38s-1.05-.46-1.85-.46h-3.11v3.79h3.11Z"/>
        <path class="cls-2" d="M155.73,33.89c.08.32.22.61.41.87.19.26.42.47.71.64.28.17.62.25,1.02.25.61,0,1.09-.16,1.43-.48.35-.32.58-.74.72-1.28h.84c-.18.78-.5,1.38-.98,1.81-.47.43-1.14.64-2.01.64-.54,0-1.01-.1-1.4-.29-.39-.19-.72-.45-.96-.78s-.43-.72-.55-1.16c-.12-.44-.18-.9-.18-1.39,0-.45.06-.89.18-1.33.12-.43.3-.82.55-1.16.25-.34.57-.62.96-.82.39-.21.86-.31,1.4-.31s1.02.11,1.41.33.71.51.95.87c.24.36.42.77.53,1.24s.15.94.13,1.42h-5.28c0,.3.04.61.13.94ZM159.88,31.33c-.1-.29-.25-.55-.43-.78-.19-.23-.41-.41-.68-.54s-.57-.21-.9-.21-.65.07-.92.21c-.27.14-.49.32-.68.54-.19.23-.33.49-.45.78-.11.3-.18.6-.22.91h4.44c0-.32-.06-.62-.17-.92Z"/>
        <path class="cls-2" d="M162.78,29.29v1.61h.03c.21-.56.54-.99.99-1.29.45-.3.98-.44,1.6-.41v.84c-.38-.02-.73.03-1.04.15-.31.12-.58.29-.8.51-.23.22-.4.49-.53.79s-.19.64-.19,1v3.66h-.84v-6.86h.77Z"/>
        <path class="cls-2" d="M167.23,29.29v1.61h.03c.21-.56.54-.99.99-1.29.45-.3.98-.44,1.6-.41v.84c-.38-.02-.73.03-1.04.15-.31.12-.58.29-.8.51-.23.22-.4.49-.53.79s-.19.64-.19,1v3.66h-.84v-6.86h.77Z"/>
        <path class="cls-2" d="M170.56,28.34l1.4-1.87h1.04l-1.75,1.87h-.68ZM170.93,29.29h.84v6.86h-.84v-6.86Z"/>
        <path class="cls-2" d="M177.93,29.39c.4.2.74.46,1.02.78.27.33.48.71.62,1.15s.21.91.21,1.4-.07.96-.21,1.4-.35.82-.62,1.15c-.28.33-.61.59-1.02.78-.4.19-.87.29-1.39.29s-.99-.1-1.39-.29-.74-.45-1.02-.78-.48-.71-.62-1.15-.21-.91-.21-1.4.07-.96.21-1.4.35-.82.62-1.15.61-.59,1.02-.78.87-.29,1.39-.29.99.1,1.39.29ZM175.49,30.05c-.3.17-.55.39-.75.67s-.35.59-.45.94c-.1.35-.15.71-.15,1.07s.05.72.15,1.07c.1.35.25.66.45.94s.45.5.75.66c.3.17.65.25,1.05.25s.75-.08,1.05-.25c.3-.17.55-.39.75-.66.2-.27.35-.59.45-.94.1-.35.15-.71.15-1.07s-.05-.72-.15-1.07c-.1-.35-.25-.66-.45-.94-.2-.27-.45-.5-.75-.67-.3-.17-.65-.25-1.05-.25s-.75.08-1.05.25Z"/>
      </g>
      <rect class="cls-2" x="72.33" width="1.72" height="64.85"/>
      <g>
        <path class="cls-1" d="M28.86,29.53h.92l1.91,4.95h-.93l-.46-1.31h-1.98l-.46,1.31h-.89l1.9-4.95ZM28.55,32.51h1.51l-.74-2.13h-.02l-.75,2.13Z"/>
        <path class="cls-1" d="M33.41,29.53h2.41c.44,0,.8.1,1.07.3.27.2.4.51.4.92,0,.25-.06.46-.18.64-.12.18-.3.32-.52.41h0c.31.08.54.22.69.45.16.22.24.5.24.84,0,.19-.04.38-.1.54-.07.17-.18.31-.33.44-.15.12-.34.22-.57.29s-.51.11-.83.11h-2.27v-4.95ZM34.27,31.6h1.41c.21,0,.38-.06.52-.18.14-.12.21-.29.21-.51,0-.25-.06-.43-.19-.53s-.3-.15-.54-.15h-1.41v1.37ZM34.27,33.77h1.53c.26,0,.47-.07.61-.21.15-.14.22-.33.22-.58s-.07-.43-.22-.57c-.15-.13-.35-.2-.61-.2h-1.53v1.55Z"/>
        <path class="cls-1" d="M41.64,29.41c.37,0,.7.07,1,.21.29.14.54.33.75.56.2.24.36.51.47.83s.16.65.16,1-.05.69-.16,1.01-.26.59-.47.83c-.2.24-.45.42-.75.56-.29.14-.62.21-1,.21s-.7-.07-1-.21c-.29-.14-.54-.32-.75-.56-.2-.24-.36-.51-.47-.83-.11-.31-.16-.65-.16-1.01s.05-.68.16-1c.11-.31.26-.59.47-.83.2-.24.45-.42.75-.56s.62-.21,1-.21ZM41.64,30.11c-.26,0-.49.05-.68.16-.19.11-.35.25-.47.43s-.21.38-.27.61c-.06.23-.09.46-.09.69s.03.47.09.69c.06.23.15.43.27.61.12.18.28.32.47.43.19.11.42.16.68.16s.49-.05.68-.16c.19-.11.35-.25.47-.43.12-.18.21-.38.27-.61.06-.23.09-.46.09-.69s-.03-.47-.09-.69c-.06-.23-.15-.43-.27-.61s-.28-.32-.47-.43c-.19-.11-.42-.16-.68-.16Z"/>
        <path class="cls-1" d="M50.37,34.48h-.55l-.13-.58c-.23.26-.46.45-.69.55-.23.1-.5.15-.8.15-.37,0-.7-.07-.99-.21-.29-.14-.54-.32-.75-.56-.2-.24-.36-.51-.47-.83s-.16-.65-.16-1.01.05-.68.16-1,.26-.59.47-.83c.2-.24.45-.42.75-.56.29-.14.62-.21.99-.21.27,0,.52.04.77.11.24.07.46.18.65.32.19.14.35.32.47.53.12.21.2.46.24.73h-.85c-.02-.16-.07-.3-.15-.43-.08-.12-.17-.23-.29-.31-.12-.08-.24-.15-.39-.19-.14-.04-.29-.06-.45-.06-.26,0-.49.05-.68.16-.19.11-.35.25-.47.43s-.21.38-.27.61c-.06.23-.09.46-.09.69s.03.47.09.69c.06.23.15.43.27.61.12.18.28.32.47.43s.42.16.68.16c.22,0,.42-.02.59-.09s.32-.15.43-.27c.12-.12.21-.26.27-.43.06-.17.09-.36.1-.57h-1.32v-.66h2.11v2.61Z"/>
        <path class="cls-1" d="M53.89,29.53h.92l1.91,4.95h-.93l-.46-1.31h-1.98l-.46,1.31h-.89l1.9-4.95ZM53.58,32.51h1.51l-.74-2.13h-.02l-.75,2.13Z"/>
        <path class="cls-1" d="M58.44,29.53h2.05c.38,0,.71.06.98.19.28.13.5.31.68.53.18.22.31.49.39.79.09.3.13.62.13.96s-.04.66-.13.96c-.08.3-.22.56-.39.79-.18.22-.4.4-.68.53-.28.13-.61.19-.98.19h-2.05v-4.95ZM59.3,33.77h.85c.34,0,.61-.04.83-.14.21-.09.38-.21.51-.37s.21-.35.25-.56.07-.45.07-.7-.02-.48-.07-.7-.13-.4-.25-.56c-.12-.16-.29-.28-.51-.38-.21-.09-.49-.13-.83-.13h-.85v3.54Z"/>
        <path class="cls-1" d="M66.01,29.53h.92l1.91,4.95h-.93l-.46-1.31h-1.98l-.46,1.31h-.89l1.9-4.95ZM65.71,32.51h1.51l-.74-2.13h-.02l-.75,2.13Z"/>
      </g>
    </g>
  </g>
</svg>