<?xml version="1.0" encoding="UTF-8"?>
<svg id="Capa_2" data-name="Capa 2" xmlns="http://www.w3.org/2000/svg" width="17.57" height="18.95" viewBox="0 0 17.57 18.95">
  <defs>
    <style>
      .cls-1 {
        fill: #ffc400;
      }

      .cls-1, .cls-2 {
        stroke-width: 0px;
      }

      .cls-2 {
        fill: #fff;
      }
    </style>
  </defs>
  <g id="Capa_2-2" data-name="Capa 2">
    <g>
      <path class="cls-2" d="M15.03.48s-.05-.04-.09-.07c-.23-.18-.63-.48-1.09-.41-.27.04-.5.21-.68.48l-3.26,5.15c-.37.59-.25,1.37.28,1.83l1.06.84c.07.12.08.28.04.48-.3,1.47-2.95,3.84-3.56,4.21-.56.33-.89.04-.91.03l-1.68-1.48c-.17-.17-.4-.26-.64-.26s-.48.1-.65.27L.36,15.05c-.43.43-.48,1.18-.1,1.66.81,1.03,1.92,1.72,3.3,2.05.57.13,1.17.2,1.79.2s1.27-.07,1.9-.21c2.74-.59,5.34-2.53,7.33-5.45.15-.22.3-.45.44-.67.12-.19.07-.44-.11-.57-.1-.07-.21-.09-.33-.07-.12.02-.22.09-.28.19-.14.23-.29.44-.42.65-1.08,1.59-3.4,4.36-6.8,5.1-3.79.82-5.66-1.12-6.14-1.74-.11-.15-.1-.4.03-.53l3.49-3.49s.06-.04.1,0l1.7,1.5c.08.07.84.7,1.91.07.41-.24,1.31-1,2.12-1.87.73-.78,1.65-1.92,1.84-2.9.1-.47.02-.88-.21-1.2l-.03-.04-1.15-.91c-.21-.18-.25-.49-.11-.71L13.89.96c.05-.08.09-.1.1-.1.09-.01.35.18.43.24.05.04.09.07.13.09,1.79,1.23,2.47,3.09,2.04,5.53-.18,1.02-.56,2.15-1.13,3.33-.09.19-.03.41.14.53.1.07.23.1.36.07.12-.03.23-.12.28-.23.75-1.58,1.06-2.8,1.19-3.55.49-2.79-.32-4.94-2.4-6.38Z"/>
      <path class="cls-1" d="M8.55,10.12v-4.03c0-.09-.04-.17-.1-.24s-.15-.1-.24-.1c-.19,0-.34.15-.34.34v2.88S1.95,3.05,1.95,3.05c-.13-.13-.34-.13-.48,0s-.13.34,0,.48l5.92,5.92h-2.88c-.09,0-.17.03-.24.1h0c-.06.06-.1.15-.1.24,0,.09.03.17.1.24s.15.1.24.1h4.03Z"/>
    </g>
  </g>
</svg>